<svg xmlns="http://www.w3.org/2000/svg" xmlns:xlink="http://www.w3.org/1999/xlink" width="500" zoomAndPan="magnify" viewBox="0 0 375 374.999991" height="500" preserveAspectRatio="xMidYMid meet" version="1.0"><defs><g/><clipPath id="cb11e8dc7e"><path d="M 120.820312 37.5 L 254.320312 37.5 L 254.320312 201.75 L 120.820312 201.75 Z M 120.820312 37.5 " clip-rule="nonzero"/></clipPath><clipPath id="fcdc1a7474"><path d="M 146.875 63.085938 L 228.125 63.085938 L 228.125 144.335938 L 146.875 144.335938 Z M 146.875 63.085938 " clip-rule="nonzero"/></clipPath><clipPath id="bccc3e3f41"><path d="M 187.5 63.085938 C 165.0625 63.085938 146.875 81.273438 146.875 103.710938 C 146.875 126.148438 165.0625 144.335938 187.5 144.335938 C 209.9375 144.335938 228.125 126.148438 228.125 103.710938 C 228.125 81.273438 209.9375 63.085938 187.5 63.085938 Z M 187.5 63.085938 " clip-rule="nonzero"/></clipPath><clipPath id="8176b427a6"><path d="M 103.050781 220 L 271.800781 220 L 271.800781 248.144531 L 103.050781 248.144531 Z M 103.050781 220 " clip-rule="nonzero"/></clipPath><clipPath id="cf6afaa962"><path d="M 103.050781 201.644531 L 242 201.644531 L 242 228 L 103.050781 228 Z M 103.050781 201.644531 " clip-rule="nonzero"/></clipPath><clipPath id="136777df2e"><path d="M 133 212 L 271.800781 212 L 271.800781 241 L 133 241 Z M 133 212 " clip-rule="nonzero"/></clipPath><clipPath id="3c03cfc50a"><path d="M 245 201.644531 L 268 201.644531 L 268 211 L 245 211 Z M 245 201.644531 " clip-rule="nonzero"/></clipPath><clipPath id="fd121fc774"><path d="M 156.234375 88 L 184 88 L 184 130.625 L 156.234375 130.625 Z M 156.234375 88 " clip-rule="nonzero"/></clipPath><clipPath id="c81047c2e5"><path d="M 182 104 L 185 104 L 185 130.625 L 182 130.625 Z M 182 104 " clip-rule="nonzero"/></clipPath><clipPath id="da71ebfaab"><path d="M 184 105 L 186 105 L 186 130.625 L 184 130.625 Z M 184 105 " clip-rule="nonzero"/></clipPath><clipPath id="75ab53e9f3"><path d="M 186 107 L 188 107 L 188 130.625 L 186 130.625 Z M 186 107 " clip-rule="nonzero"/></clipPath><clipPath id="528edf7444"><path d="M 187 108 L 189 108 L 189 130.625 L 187 130.625 Z M 187 108 " clip-rule="nonzero"/></clipPath><clipPath id="22b1ec14ff"><path d="M 181 76.625 L 202 76.625 L 202 130.625 L 181 130.625 Z M 181 76.625 " clip-rule="nonzero"/></clipPath><clipPath id="107d7dc6a5"><path d="M 203 90 L 218.484375 90 L 218.484375 127 L 203 127 Z M 203 90 " clip-rule="nonzero"/></clipPath></defs><rect x="-37.5" width="450" fill="#ffffff" y="-37.499999" height="449.999989" fill-opacity="1"/><rect x="-37.5" width="450" fill="#ffffff" y="-37.499999" height="449.999989" fill-opacity="1"/><path fill="#b7b9bb" d="M 338.015625 -27.929688 L 38.539062 -27.929688 C 6.09375 -27.929688 -20.472656 -1.777344 -21.269531 30.488281 C -21.28125 30.976562 -21.34375 31.460938 -21.34375 31.960938 L -21.34375 331.425781 C -21.34375 364.371094 5.597656 391.320312 38.539062 391.320312 L 338.015625 391.320312 C 370.460938 391.320312 397.027344 365.152344 397.820312 332.902344 L 397.820312 30.488281 C 397.027344 -1.777344 370.449219 -27.929688 338.015625 -27.929688 " fill-opacity="1" fill-rule="nonzero"/><path fill="#c8bba1" d="M 351.761719 363.636719 L 307.859375 369.636719 L 303.640625 356.152344 L 313.773438 350.917969 L 307.859375 338.929688 L 324.746094 327.707031 L 351.761719 363.636719 M 320.15625 316.859375 C 309.140625 326.011719 302.125 336.503906 299.304688 348.222656 C 295.714844 363.199219 300.65625 379.363281 306.113281 391.320312 L 314.199219 391.320312 L 312.078125 386.859375 L 331.503906 384.609375 L 332.269531 391.320312 L 338.015625 391.320312 C 339.828125 391.320312 341.605469 391.199219 343.386719 391.03125 L 340.792969 383.113281 L 362.734375 377.113281 L 366.054688 384.285156 C 367.671875 383.410156 369.238281 382.476562 370.761719 381.46875 C 355.605469 356.65625 338.605469 334.992188 320.15625 316.859375 " fill-opacity="1" fill-rule="nonzero"/><path fill="#c8bba1" d="M 388.617188 363.160156 C 390.382812 360.351562 391.933594 357.394531 393.226562 354.300781 C 392.125 354.519531 391.4375 354.660156 391.4375 354.660156 L 358.507812 309.734375 L 397.820312 286.332031 L 397.820312 275.941406 L 341.753906 304.75 C 358.640625 321.753906 374.398438 341.375 388.617188 363.160156 " fill-opacity="1" fill-rule="nonzero"/><path fill="#c8bba1" d="M 190.601562 -6.167969 C 205.769531 -3.125 221.039062 1.542969 230.019531 15.03125 C 231.660156 17.480469 233.011719 20.140625 234.09375 23 L 245.683594 -22.964844 C 244.636719 -24.734375 243.605469 -26.371094 242.59375 -27.933594 L 229.578125 -27.933594 L 225.972656 -10.757812 L 213.308594 -18.984375 L 214.882812 -27.933594 L 202.449219 -27.933594 L 197.265625 -12.25 L 123.714844 -27.933594 L 89.171875 -27.933594 L 88.84375 -27.441406 C 127.621094 -19.210938 168.988281 -10.503906 190.601562 -6.167969 " fill-opacity="1" fill-rule="nonzero"/><path fill="#c8bba1" d="M 15.4375 30.234375 L 22.03125 1.585938 L -8.640625 -4.65625 C -9.550781 -3.472656 -10.4375 -2.285156 -11.261719 -1.042969 L -17.511719 23.410156 L 15.4375 30.234375 " fill-opacity="1" fill-rule="nonzero"/><path fill="#c8bba1" d="M 3.179688 83.484375 L -21.34375 78.453125 L -21.34375 90.335938 L -12.097656 90.335938 L -12.097656 103.066406 L -21.34375 103.066406 L -21.34375 111.542969 C -15.632812 112.714844 -9.839844 113.898438 -4.089844 115.074219 L 3.179688 83.484375 " fill-opacity="1" fill-rule="nonzero"/><path fill="#c8bba1" d="M 150.929688 40.445312 L 169.332031 44.953125 L 171.195312 38.945312 L 212.695312 49.125 L 210.675781 55.609375 L 192.28125 51.109375 L 190.414062 57.109375 L 148.917969 46.933594 L 150.929688 40.445312 M 139.019531 46.15625 L 123.8125 46.15625 L 123.8125 41.664062 L 92.589844 41.664062 L 92.589844 27.4375 L 135.644531 27.4375 L 135.644531 36.417969 L 139.019531 36.417969 L 139.019531 46.15625 M 171.035156 62.445312 L 221.191406 74.183594 L 228.769531 44.117188 C 228.769531 43.976562 228.773438 43.828125 228.789062 43.6875 L 66.101562 10.558594 L 60.136719 39.484375 L 170.9375 62.417969 L 171.035156 62.445312 " fill-opacity="1" fill-rule="nonzero"/><path fill="#c8bba1" d="M 100.003906 59.265625 L 92.957031 90.210938 L 128.929688 97.648438 C 127.21875 95.554688 125.777344 93.34375 124.632812 90.980469 C 119.695312 80.75 121.59375 70.550781 123.789062 64.191406 L 100.003906 59.265625 " fill-opacity="1" fill-rule="nonzero"/><path fill="#c8bba1" d="M 3.097656 62.628906 L -16.320312 62.628906 L -16.320312 43.910156 L 3.097656 43.910156 L 3.097656 62.628906 M 12.910156 41.246094 L -20.320312 34.375 L -21.34375 38.378906 L -21.34375 66.570312 L 5.785156 72.179688 L 12.910156 41.246094 " fill-opacity="1" fill-rule="nonzero"/><path fill="#c8bba1" d="M 285.070312 -2.511719 L 293.503906 -2.511719 L 293.503906 30.429688 L 285.070312 30.429688 L 285.070312 -2.511719 M 296.035156 28.183594 L 308.707031 28.183594 L 308.707031 48.402344 L 296.035156 48.402344 L 296.035156 28.183594 M 281.664062 49.160156 C 282.335938 56.4375 282.695312 63.910156 282.753906 71.566406 C 283.386719 70.9375 284.050781 70.304688 284.734375 69.671875 C 298.1875 57.351562 314.4375 52.5625 331.933594 55.683594 C 316.511719 24.832031 298.722656 -3.105469 278.648438 -27.933594 L 259.910156 -27.933594 L 259.472656 -26.207031 C 268.171875 -11.351562 278.355469 13.078125 281.664062 49.160156 " fill-opacity="1" fill-rule="nonzero"/><path fill="#c8bba1" d="M 53.738281 8.046875 L 34.371094 4.105469 L 27.769531 32.789062 L 47.796875 36.933594 L 53.738281 8.046875 " fill-opacity="1" fill-rule="nonzero"/><path fill="#c8bba1" d="M 215.417969 109.058594 C 223.109375 109.058594 229.347656 114.585938 229.347656 121.40625 C 229.347656 128.230469 223.109375 133.757812 215.417969 133.757812 C 207.726562 133.757812 201.492188 128.230469 201.492188 121.40625 C 201.492188 114.585938 207.726562 109.058594 215.417969 109.058594 M 215.417969 140.875 C 227.519531 140.875 237.367188 132.148438 237.367188 121.40625 C 237.367188 110.671875 227.519531 101.949219 215.417969 101.949219 C 203.316406 101.949219 193.46875 110.671875 193.46875 121.40625 C 193.46875 132.148438 203.316406 140.875 215.417969 140.875 " fill-opacity="1" fill-rule="nonzero"/><path fill="#c8bba1" d="M 286.886719 345.984375 C 288.261719 340.257812 290.441406 334.796875 293.40625 329.597656 L 173.316406 391.320312 L 183.835938 391.320312 L 198.960938 382.367188 C 198.960938 382.367188 269.871094 367.390625 273.25 365.890625 C 276.617188 364.390625 279.152344 376.375 279.152344 376.375 C 279.152344 376.375 252.054688 383.621094 223.027344 391.320312 L 245.761719 391.320312 L 265.65625 386.101562 L 267.609375 391.320312 L 291.738281 391.320312 C 286.828125 379.566406 282.777344 363.289062 286.886719 345.984375 " fill-opacity="1" fill-rule="nonzero"/><path fill="#c8bba1" d="M -12.488281 207.734375 L 28.960938 206.832031 L 29.554688 198.277344 L -10.226562 197.871094 L -12.488281 207.734375 " fill-opacity="1" fill-rule="nonzero"/><path fill="#c8bba1" d="M 59.65625 102.3125 L 69.800781 102.3125 L 69.800781 118.792969 L 59.65625 118.792969 L 59.65625 102.3125 M 47.28125 125.449219 L 75.132812 130.703125 L 82.183594 99.695312 L 49.511719 92.992188 L 47.28125 125.449219 " fill-opacity="1" fill-rule="nonzero"/><path fill="#c8bba1" d="M 84.734375 88.507812 L 91.78125 57.574219 L 57.859375 50.554688 L 51.464844 81.617188 L 84.734375 88.507812 " fill-opacity="1" fill-rule="nonzero"/><path fill="#c8bba1" d="M 42.230469 198.410156 L 41.667969 206.5625 L 52.902344 206.3125 L 47.4375 198.453125 L 42.230469 198.410156 " fill-opacity="1" fill-rule="nonzero"/><path fill="#c8bba1" d="M 146.613281 334.449219 L 171.097656 327.707031 L 175.320312 345.660156 L 152.53125 352.410156 L 146.613281 334.449219 M 143.242188 326.957031 L 137.320312 312.726562 L 160.972656 305.230469 L 164.34375 320.96875 L 143.242188 326.957031 M 126.351562 275.285156 L 136.484375 270.796875 L 140.703125 285.761719 L 154.21875 282.777344 L 159.277344 300.746094 L 136.484375 305.980469 L 126.351562 275.285156 M 105.25 313.476562 L 103.558594 308.230469 L 114.535156 305.230469 L 109.464844 295.511719 L 85.835938 301.5 L 81.609375 287.269531 L 116.21875 276.035156 L 128.882812 309.734375 L 105.25 313.476562 M 23.359375 332.945312 L 16.605469 337.441406 L -2.816406 333.695312 L -8.714844 321.714844 L 14.917969 306.734375 L 77.394531 288.761719 L 84.992188 311.230469 L 23.359375 332.945312 M 43.613281 369.636719 L 32.640625 364.390625 L 25.890625 338.179688 L 46.996094 329.957031 L 43.613281 369.636719 M 16.605469 383.867188 L -0.28125 368.140625 L 16.605469 341.183594 L 28.421875 365.140625 L 16.605469 383.867188 M -5.34375 357.65625 L -3.65625 338.929688 L 7.3125 343.4375 L -5.34375 357.65625 M 166.601562 266.179688 L 180.984375 313.546875 L 169.125 316.378906 L 154.742188 269.015625 L 166.601562 266.179688 M 189.769531 331.273438 L 174.496094 260.640625 L 174.195312 260.582031 L 174.355469 259.988281 L 174.167969 259.128906 L 174.59375 259.0625 L 175.769531 254.378906 C 165.960938 254.929688 156.34375 256.472656 147.019531 259.0625 C 111.835938 268.808594 34.785156 293.144531 -21.34375 311.101562 L -21.34375 323.292969 L -12.941406 320.21875 L -7.035156 335.179688 L -21.289062 332.375 C -21.265625 334.316406 -21.15625 336.234375 -20.945312 338.125 L -9.5625 340.425781 L -11.25 364.390625 L -11.476562 364.195312 C -2.902344 377.210938 10.589844 386.753906 26.320312 390.039062 L 31.800781 373.375 L 46.996094 383.867188 L 28.5625 390.414062 C 31.816406 390.957031 35.136719 391.320312 38.539062 391.320312 L 59.835938 391.320312 L 51.214844 377.113281 L 52.902344 328.453125 L 88.363281 315.722656 L 101.871094 318.722656 L 129.730469 312.726562 L 145.769531 358.402344 L 103.460938 391.320312 L 121.886719 391.320312 L 169.890625 366.71875 C 176.984375 354.578125 183.597656 342.757812 189.769531 331.273438 " fill-opacity="1" fill-rule="nonzero"/><path fill="#c8bba1" d="M 3.945312 165.210938 L 10.699219 165.210938 L 10.699219 180.945312 L 3.945312 180.945312 L 3.945312 165.210938 M 19.132812 167.460938 L 24.207031 167.460938 L 24.207031 183.1875 L 19.132812 183.1875 L 19.132812 167.460938 M -7.644531 186.660156 L 30.335938 187.054688 L 32.03125 162.4375 L -0.921875 157.457031 L -7.644531 186.660156 " fill-opacity="1" fill-rule="nonzero"/><path fill="#c8bba1" d="M 25.242188 43.800781 L 18.125 74.726562 L 39.117188 79.066406 L 45.519531 47.996094 L 25.242188 43.800781 " fill-opacity="1" fill-rule="nonzero"/><path fill="#c8bba1" d="M 8.25 117.585938 C 17.636719 119.492188 26.652344 121.324219 34.773438 122.96875 L 37.007812 90.425781 L 15.527344 86.015625 L 8.25 117.585938 " fill-opacity="1" fill-rule="nonzero"/><path fill="#c8bba1" d="M 1.613281 146.460938 L 32.804688 151.15625 L 33.976562 134.328125 C 27.976562 133.097656 17.738281 130.992188 5.746094 128.492188 L 1.613281 146.460938 " fill-opacity="1" fill-rule="nonzero"/><path fill="#c8bba1" d="M 148.304688 91.078125 L 153.371094 76.109375 L 164.34375 76.859375 L 161.8125 85.09375 L 185.445312 90.335938 L 182.914062 100.816406 L 148.304688 91.078125 M 183.769531 108.988281 C 189.164062 98.226562 201.320312 90.707031 215.417969 90.707031 C 215.957031 90.707031 216.492188 90.726562 217.011719 90.742188 L 218.421875 85.152344 L 167.886719 73.316406 L 136.167969 66.753906 C 134.488281 71.265625 132.65625 79.144531 136.316406 86.652344 C 140.40625 95.019531 150.402344 101.238281 166.054688 105.144531 L 166.003906 105.3125 L 183.769531 108.988281 " fill-opacity="1" fill-rule="nonzero"/><path fill="#c8bba1" d="M 304.480469 124.78125 L 289.285156 124.78125 L 289.285156 110.546875 L 304.480469 110.546875 L 304.480469 124.78125 M 281.664062 99.523438 C 280.902344 108.84375 279.726562 118.414062 278.152344 128.199219 L 311.582031 134.980469 L 312.210938 135.070312 L 317.292969 105.984375 L 281.664062 99.523438 " fill-opacity="1" fill-rule="nonzero"/><path fill="#c8bba1" d="M 268.984375 49.585938 C 266.832031 27.246094 260.992188 8.578125 254.398438 -6.105469 L 243.957031 35.378906 C 248.574219 36.679688 254.886719 39.042969 261.105469 43.15625 C 263.695312 44.875 266.402344 46.996094 268.984375 49.585938 " fill-opacity="1" fill-rule="nonzero"/><path fill="#c8bba1" d="M 330.652344 89.582031 L 315.464844 89.582031 L 315.464844 85.835938 L 302.785156 85.835938 L 302.785156 79.101562 L 315.464844 79.101562 L 315.464844 76.109375 L 330.652344 76.109375 L 330.652344 89.582031 M 338.210938 68.652344 L 332.433594 67.3125 C 317.96875 63.835938 304.996094 67.261719 293.832031 77.488281 C 289.671875 81.292969 286.539062 85.347656 284.382812 88.558594 L 352 100.808594 C 347.671875 89.796875 343.066406 79.0625 338.210938 68.652344 " fill-opacity="1" fill-rule="nonzero"/><path fill="#c8bba1" d="M 253.519531 52.148438 C 249.109375 49.230469 244.613281 47.445312 241.175781 46.390625 L 233.4375 77.058594 L 269.800781 85.578125 C 269.890625 83.460938 269.957031 81.390625 270.007812 79.355469 C 268.558594 67.601562 263.046875 58.464844 253.519531 52.148438 " fill-opacity="1" fill-rule="nonzero"/><path fill="#c8bba1" d="M 82.460938 204.902344 L 181.222656 205.65625 L 175.320312 225.121094 C 175.320312 225.121094 122.128906 229.613281 104.402344 241.589844 L 82.460938 204.902344 M 93.429688 238.601562 L 70.644531 238.601562 L 70.644531 229.613281 L 93.429688 229.613281 L 93.429688 238.601562 M 63.035156 256.5625 L 47.839844 256.5625 L 47.839844 231.867188 L 63.035156 231.867188 L 63.035156 256.5625 M 40.246094 263.308594 L 25.046875 263.308594 L 25.046875 233.359375 L 40.246094 233.359375 L 40.246094 263.308594 M 14.078125 269.304688 L 1.410156 269.304688 L 1.410156 255.824219 L 14.078125 255.824219 L 14.078125 269.304688 M 181.476562 231.710938 L 189.5 199.910156 L 62.476562 198.609375 L 75.707031 216.878906 L -21.34375 219.105469 L -21.34375 228.113281 L 11.539062 228.113281 L 11.539062 244.589844 L -21.34375 244.589844 L -21.34375 255.082031 L -10.410156 255.082031 L -10.410156 264.058594 L -21.34375 264.058594 L -21.34375 287.226562 C 34.0625 269.53125 105.683594 246.96875 139.457031 237.601562 C 153.066406 233.832031 167.171875 231.910156 181.476562 231.710938 " fill-opacity="1" fill-rule="nonzero"/><path fill="#c8bba1" d="M 342.46875 225.867188 L 332.347656 221.378906 L 329.8125 231.867188 L 339.945312 234.097656 L 334.03125 246.089844 L 306.171875 240.847656 L 318.839844 210.140625 L 352.605469 195.914062 L 366.113281 198.914062 L 342.46875 225.867188 M 393.125 245.335938 L 382.148438 252.824219 L 348.382812 245.335938 L 359.355469 228.113281 L 393.125 245.335938 M 323.90625 279.785156 L 298.5625 260.316406 L 304.480469 249.835938 L 367.789062 259.570312 L 323.90625 279.785156 M 255.523438 240.09375 L 258.894531 227.359375 L 307.011719 212.394531 L 290.125 257.320312 L 255.523438 240.09375 M 274.929688 184.683594 L 332.347656 195.914062 L 263.113281 219.875 C 263.113281 219.875 274.089844 186.929688 274.929688 184.683594 M 388.496094 199.195312 L 267.066406 178.375 C 261.375 198.882812 254.132812 220.179688 245.382812 242.191406 C 258.125 246.542969 270.765625 252.1875 283.121094 259.171875 C 297.054688 267.0625 310.621094 276.757812 323.667969 287.933594 L 397.820312 249.949219 L 397.820312 236.148438 L 361.886719 222.132812 L 375.394531 204.902344 L 397.820312 231.238281 L 397.820312 222.40625 C 395.316406 217.730469 394.128906 213.734375 393.785156 212.464844 L 388.496094 199.195312 " fill-opacity="1" fill-rule="nonzero"/><path fill="#c8bba1" d="M 308.988281 145.980469 L 276.207031 139.324219 C 274.46875 148.511719 272.394531 157.886719 269.960938 167.433594 L 305.472656 173.519531 L 310.257812 146.164062 L 309.203125 146.023438 L 308.988281 145.980469 " fill-opacity="1" fill-rule="nonzero"/><path fill="#c8bba1" d="M 325.585938 107.488281 L 320.546875 136.222656 L 366.726562 142.605469 C 363.488281 132.28125 360.042969 122.210938 356.402344 112.347656 L 352.90625 112.441406 L 325.585938 107.488281 " fill-opacity="1" fill-rule="nonzero"/><path fill="#c8bba1" d="M 229.347656 93.3125 C 241.515625 98.074219 250.027344 108.871094 250.027344 121.40625 C 250.027344 121.765625 250.015625 122.117188 249.996094 122.480469 L 265.644531 125.652344 C 267.261719 115.5 268.398438 105.957031 269.101562 97.023438 L 230.683594 88.023438 L 229.347656 93.3125 " fill-opacity="1" fill-rule="nonzero"/><path fill="#c8bba1" d="M 365.425781 100.875 L 397.820312 100.023438 L 397.820312 82.507812 L 353.496094 72.214844 C 357.664062 81.523438 361.648438 91.078125 365.425781 100.875 " fill-opacity="1" fill-rule="nonzero"/><path fill="#c8bba1" d="M 380.460938 13.949219 L 386.59375 -2.84375 C 384.269531 -6.078125 381.617188 -9.066406 378.722656 -11.777344 L 363.574219 13.949219 L 352.605469 16.957031 L 348.382812 10.960938 L 360.203125 4.222656 L 355.132812 -3.269531 L 337.40625 4.222656 L 316.117188 -27.933594 L 294.046875 -27.933594 C 312.492188 -4.199219 328.988281 22.109375 343.40625 50.917969 C 347.21875 39.972656 353.332031 32.210938 361.671875 27.800781 C 373.648438 21.464844 385.730469 24.582031 387.4375 25.070312 L 397.625 27.835938 C 397.394531 24.535156 396.953125 21.285156 396.195312 18.144531 L 380.460938 13.949219 " fill-opacity="1" fill-rule="nonzero"/><path fill="#c8bba1" d="M 368.007812 37.527344 C 361.242188 41.1875 356.332031 49.144531 353.691406 60.644531 L 397.820312 70.898438 L 397.820312 61.128906 L 376.246094 61.128906 L 376.246094 48.402344 L 397.820312 48.402344 L 397.820312 39.628906 L 383.425781 35.730469 C 383.160156 35.648438 375.5 33.480469 368.007812 37.527344 " fill-opacity="1" fill-rule="nonzero"/><path fill="#c8bba1" d="M 330.652344 158.484375 L 337.40625 158.484375 L 337.40625 171.199219 L 330.652344 171.199219 L 330.652344 158.484375 M 344.230469 160.332031 L 351.542969 160.910156 L 350.105469 175.082031 L 342.792969 174.503906 L 344.230469 160.332031 M 361.886719 167.460938 L 369.484375 167.460938 L 369.484375 179.445312 L 361.886719 179.445312 L 361.886719 167.460938 M 313.773438 174.941406 L 383.601562 186.914062 L 370.683594 154.519531 L 318.601562 147.320312 L 313.773438 174.941406 " fill-opacity="1" fill-rule="nonzero"/><path fill="#c8bba1" d="M 381.449219 147.820312 L 397.078125 187.015625 L 397.820312 186.71875 L 397.820312 174.042969 L 382.988281 126.277344 L 397.820312 132.992188 L 397.820312 122.351562 L 381.304688 115.792969 L 397.820312 115.460938 L 397.820312 111.261719 L 369.585938 112 C 373.816406 123.628906 377.777344 135.570312 381.449219 147.820312 " fill-opacity="1" fill-rule="nonzero"/><path fill="#c8bba1" d="M 45.367188 153.054688 L 195.597656 175.71875 L 198.1875 165.398438 L 46.488281 136.78125 L 45.367188 153.054688 " fill-opacity="1" fill-rule="nonzero"/><path fill="#c8bba1" d="M 215.417969 152.109375 C 215.125 152.109375 214.828125 152.09375 214.527344 152.089844 L 213.347656 156.773438 L 257.421875 165.089844 C 259.933594 155.203125 262.011719 145.757812 263.695312 136.785156 L 247.261719 133.445312 C 241.972656 144.417969 229.691406 152.109375 215.417969 152.109375 " fill-opacity="1" fill-rule="nonzero"/><path fill="#c8bba1" d="M 187.292969 260.167969 L 198.90625 313.882812 C 208.675781 294.859375 217.164062 276.796875 224.570312 259.609375 C 212.574219 256.429688 200.585938 254.644531 188.765625 254.265625 L 187.292969 260.167969 " fill-opacity="1" fill-rule="nonzero"/><path fill="#c8bba1" d="M 268.183594 310.476562 L 232.722656 292.511719 L 243.703125 272.296875 C 243.703125 272.296875 275.777344 285.019531 291.8125 300.746094 L 268.183594 310.476562 M 214.148438 338.179688 L 230.1875 299.996094 L 259.75 317.214844 L 214.148438 338.179688 M 236.632812 263.289062 C 223.730469 293.15625 208.164062 324.25 190.007812 356.417969 L 300.898438 299.609375 C 290.765625 291.425781 280.285156 284.226562 269.496094 278.117188 C 258.699219 272.003906 247.695312 267.085938 236.632812 263.289062 " fill-opacity="1" fill-rule="nonzero"/><path fill="#c8bba1" d="M 202.332031 19.945312 L 190.519531 19.945312 L 190.519531 7.964844 L 202.332031 7.964844 L 202.332031 19.945312 M 173.703125 15.269531 L 100.464844 0.363281 L 103.492188 -11.3125 L 176.71875 3.59375 L 173.703125 15.269531 M 222.753906 18.84375 C 215.03125 7.25 201.144531 3.621094 188.738281 1.132812 C 166.628906 -3.300781 123.925781 -12.300781 84.40625 -20.675781 L 70.851562 0.015625 L 227.882812 31.976562 C 226.929688 26.941406 225.230469 22.546875 222.753906 18.84375 " fill-opacity="1" fill-rule="nonzero"/><path fill="#c8bba1" d="M 239.160156 223.28125 L 198.269531 216.625 L 194.386719 231.992188 C 207.304688 232.757812 220.332031 234.949219 233.308594 238.503906 C 235.347656 233.347656 237.324219 228.25 239.160156 223.28125 " fill-opacity="1" fill-rule="nonzero"/><path fill="#c8bba1" d="M 54.59375 174.949219 L 69.800781 174.949219 L 69.800781 181.691406 L 54.59375 181.691406 L 54.59375 174.949219 M 43.007812 187.175781 L 192.324219 188.710938 L 192.828125 186.691406 L 44.582031 164.335938 L 43.007812 187.175781 " fill-opacity="1" fill-rule="nonzero"/><path fill="#c8bba1" d="M 137.320312 135.253906 L 103.558594 127.773438 L 106.089844 117.292969 L 139.859375 124.78125 L 137.320312 135.253906 M 180.804688 121.40625 C 180.804688 120.921875 180.820312 120.425781 180.839844 119.9375 L 90.421875 101.378906 L 83.378906 132.265625 L 200.957031 154.4375 L 202.136719 149.75 C 189.628906 145.132812 180.804688 134.164062 180.804688 121.40625 " fill-opacity="1" fill-rule="nonzero"/><path fill="#c8bba1" d="M 208.101562 177.601562 L 208.21875 177.609375 C 211.480469 177.886719 237.085938 180.519531 248.65625 195.691406 C 250.792969 188.953125 252.734375 182.394531 254.511719 176.03125 L 210.574219 167.738281 L 208.101562 177.601562 " fill-opacity="1" fill-rule="nonzero"/><path fill="#c8bba1" d="M 206.878906 188.773438 L 206.34375 188.722656 L 205.332031 188.574219 L 201.027344 205.660156 L 241.558594 212.246094 C 241.558594 208.449219 240.492188 205.113281 238.328125 202.195312 C 229.792969 190.625 207.109375 188.796875 206.878906 188.773438 " fill-opacity="1" fill-rule="nonzero"/><path fill="#29abe2" d="M 175.769531 254.378906 L 181.476562 231.710938 C 167.171875 231.910156 153.066406 233.832031 139.457031 237.601562 C 105.683594 246.96875 34.0625 269.53125 -21.34375 287.226562 L -21.34375 311.101562 C 34.785156 293.144531 111.835938 268.808594 147.019531 259.0625 C 156.34375 256.472656 165.960938 254.929688 175.769531 254.378906 " fill-opacity="1" fill-rule="nonzero"/><path fill="#29abe2" d="M 323.605469 314.074219 C 322.398438 314.980469 321.28125 315.921875 320.15625 316.859375 C 338.605469 334.992188 355.605469 356.65625 370.761719 381.46875 C 377.957031 376.722656 384.019531 370.449219 388.617188 363.160156 C 374.398438 341.375 358.640625 321.753906 341.753906 304.75 L 323.605469 314.074219 " fill-opacity="1" fill-rule="nonzero"/><path fill="#29abe2" d="M 269.496094 278.117188 C 280.285156 284.226562 290.765625 291.425781 300.898438 299.609375 L 323.667969 287.933594 C 310.621094 276.757812 297.054688 267.0625 283.121094 259.171875 C 270.765625 252.1875 258.125 246.542969 245.382812 242.191406 C 242.613281 249.152344 239.699219 256.179688 236.632812 263.289062 C 247.695312 267.085938 258.699219 272.003906 269.496094 278.117188 " fill-opacity="1" fill-rule="nonzero"/><path fill="#29abe2" d="M 224.570312 259.609375 C 227.667969 252.410156 230.574219 245.382812 233.308594 238.503906 C 220.332031 234.949219 207.304688 232.757812 194.386719 231.992188 L 188.765625 254.265625 C 200.585938 254.644531 212.574219 256.429688 224.570312 259.609375 " fill-opacity="1" fill-rule="nonzero"/><path fill="#c8bba1" d="M 299.304688 348.222656 C 302.125 336.503906 309.140625 326.011719 320.15625 316.859375 C 313.886719 310.699219 307.472656 304.917969 300.898438 299.609375 L 190.007812 356.417969 C 208.164062 324.25 223.730469 293.15625 236.632812 263.289062 C 232.613281 261.910156 228.59375 260.683594 224.570312 259.609375 C 217.164062 276.796875 208.675781 294.859375 198.90625 313.882812 L 187.292969 260.167969 L 188.765625 254.265625 C 184.417969 254.109375 180.078125 254.140625 175.769531 254.378906 L 174.59375 259.0625 L 174.167969 259.128906 L 174.355469 259.988281 L 174.195312 260.582031 L 174.496094 260.640625 L 189.769531 331.273438 C 183.597656 342.757812 176.984375 354.578125 169.890625 366.71875 L 121.886719 391.320312 L 173.316406 391.320312 L 293.40625 329.597656 C 290.441406 334.796875 288.261719 340.257812 286.886719 345.984375 C 282.777344 363.289062 286.828125 379.566406 291.738281 391.320312 L 306.113281 391.320312 C 300.65625 379.363281 295.714844 363.199219 299.304688 348.222656 " fill-opacity="1" fill-rule="nonzero"/><path fill="#f4f2ed" d="M 306.113281 391.320312 L 291.738281 391.320312 C 288.242188 382.960938 285.191406 372.316406 285.191406 360.648438 C 285.195312 355.902344 285.699219 350.988281 286.886719 345.984375 C 288.261719 340.257812 290.441406 334.796875 293.40625 329.597656 L 173.316406 391.320312 L 121.886719 391.320312 L 169.890625 366.71875 C 176.984375 354.578125 183.597656 342.757812 189.769531 331.273438 L 174.496094 260.640625 L 174.195312 260.582031 L 174.355469 259.988281 L 174.167969 259.128906 L 174.59375 259.0625 L 175.769531 254.378906 C 175.855469 254.375 175.9375 254.371094 176.023438 254.363281 C 176.078125 254.363281 176.132812 254.359375 176.191406 254.359375 C 178.601562 254.226562 181.027344 254.167969 183.449219 254.167969 C 183.457031 254.167969 183.457031 254.167969 183.460938 254.167969 C 183.460938 254.167969 183.460938 254.167969 183.46875 254.167969 C 185.171875 254.167969 186.878906 254.203125 188.585938 254.261719 C 188.648438 254.261719 188.707031 254.261719 188.765625 254.265625 L 187.292969 260.167969 L 198.90625 313.882812 C 208.675781 294.859375 217.164062 276.796875 224.570312 259.609375 C 228.59375 260.683594 232.613281 261.910156 236.632812 263.289062 C 223.730469 293.15625 208.164062 324.25 190.007812 356.417969 L 300.898438 299.609375 C 307.472656 304.917969 313.886719 310.699219 320.15625 316.859375 C 309.140625 326.011719 302.125 336.503906 299.304688 348.222656 C 298.457031 351.757812 298.082031 355.367188 298.082031 358.96875 C 298.078125 370.601562 301.945312 382.191406 306.113281 391.320312 " fill-opacity="1" fill-rule="nonzero"/><path fill="#c8bba1" d="M 356.402344 112.347656 C 360.042969 122.210938 363.488281 132.28125 366.726562 142.605469 L 320.546875 136.222656 L 325.585938 107.488281 L 352.90625 112.441406 L 356.402344 112.347656 M 370.683594 154.519531 L 383.601562 186.914062 L 313.773438 174.941406 L 318.601562 147.320312 L 370.683594 154.519531 M 311.582031 134.980469 L 278.152344 128.199219 C 279.726562 118.414062 280.902344 108.84375 281.664062 99.523438 L 317.292969 105.984375 L 312.210938 135.070312 L 311.582031 134.980469 M 305.472656 173.519531 L 269.960938 167.433594 C 272.394531 157.886719 274.46875 148.511719 276.207031 139.324219 L 308.988281 145.980469 L 309.203125 146.023438 L 310.257812 146.164062 L 305.472656 173.519531 M 233.4375 77.058594 L 241.175781 46.390625 C 244.613281 47.445312 249.109375 49.230469 253.519531 52.148438 C 263.046875 58.464844 268.558594 67.601562 270.007812 79.355469 C 269.957031 81.390625 269.890625 83.460938 269.800781 85.578125 L 233.4375 77.058594 M 265.644531 125.652344 L 249.996094 122.480469 C 250.015625 122.117188 250.027344 121.765625 250.027344 121.40625 C 250.027344 108.871094 241.515625 98.074219 229.347656 93.3125 L 230.683594 88.023438 L 269.101562 97.023438 C 268.398438 105.957031 267.261719 115.5 265.644531 125.652344 M 257.421875 165.089844 L 213.347656 156.773438 L 214.527344 152.089844 C 214.828125 152.09375 215.125 152.109375 215.417969 152.109375 C 229.691406 152.109375 241.972656 144.417969 247.261719 133.445312 L 263.695312 136.785156 C 262.011719 145.757812 259.933594 155.203125 257.421875 165.089844 M 248.65625 195.691406 C 237.085938 180.519531 211.480469 177.886719 208.21875 177.609375 L 208.101562 177.601562 L 210.574219 167.738281 L 254.511719 176.03125 C 252.734375 182.394531 250.792969 188.953125 248.65625 195.691406 M 201.027344 205.660156 L 205.332031 188.574219 L 206.34375 188.722656 L 206.878906 188.773438 C 207.109375 188.796875 229.792969 190.625 238.328125 202.195312 C 240.492188 205.113281 241.558594 208.449219 241.558594 212.246094 L 201.027344 205.660156 M 83.378906 132.265625 L 90.421875 101.378906 L 180.839844 119.9375 C 180.820312 120.425781 180.804688 120.921875 180.804688 121.40625 C 180.804688 134.164062 189.628906 145.132812 202.136719 149.75 L 200.957031 154.4375 L 83.378906 132.265625 M 195.597656 175.71875 L 45.367188 153.054688 L 46.488281 136.78125 L 198.1875 165.398438 L 195.597656 175.71875 M 192.324219 188.710938 L 43.007812 187.175781 L 44.582031 164.335938 L 192.828125 186.691406 L 192.324219 188.710938 M 41.667969 206.5625 L 42.230469 198.410156 L 47.4375 198.453125 L 52.902344 206.3125 L 41.667969 206.5625 M 18.125 74.726562 L 25.242188 43.800781 L 45.519531 47.996094 L 39.117188 79.066406 L 18.125 74.726562 M 34.773438 122.96875 C 26.652344 121.324219 17.636719 119.492188 8.25 117.585938 L 15.527344 86.015625 L 37.007812 90.425781 L 34.773438 122.96875 M 32.804688 151.15625 L 1.613281 146.460938 L 5.746094 128.492188 C 17.738281 130.992188 27.976562 133.097656 33.976562 134.328125 L 32.804688 151.15625 M 30.335938 187.054688 L -7.644531 186.660156 L -0.921875 157.457031 L 32.03125 162.4375 L 30.335938 187.054688 M 28.960938 206.832031 L -12.488281 207.734375 L -10.226562 197.871094 L 29.554688 198.277344 L 28.960938 206.832031 M 34.371094 4.105469 L 53.738281 8.046875 L 47.796875 36.933594 L 27.769531 32.789062 L 34.371094 4.105469 M 82.183594 99.695312 L 75.132812 130.703125 L 47.28125 125.449219 L 49.511719 92.992188 L 82.183594 99.695312 M 91.78125 57.574219 L 84.734375 88.507812 L 51.464844 81.617188 L 57.859375 50.554688 L 91.78125 57.574219 M 124.632812 90.980469 C 125.777344 93.34375 127.21875 95.554688 128.929688 97.648438 L 92.957031 90.210938 L 100.003906 59.265625 L 123.789062 64.191406 C 121.59375 70.550781 119.695312 80.75 124.632812 90.980469 M 215.417969 101.949219 C 227.519531 101.949219 237.367188 110.671875 237.367188 121.40625 C 237.367188 132.148438 227.519531 140.875 215.417969 140.875 C 203.316406 140.875 193.46875 132.148438 193.46875 121.40625 C 193.46875 110.671875 203.316406 101.949219 215.417969 101.949219 M 136.316406 86.652344 C 132.65625 79.144531 134.488281 71.265625 136.167969 66.753906 L 167.886719 73.316406 L 218.421875 85.152344 L 217.011719 90.742188 C 216.492188 90.726562 215.957031 90.707031 215.417969 90.707031 C 201.320312 90.707031 189.164062 98.226562 183.769531 108.988281 L 166.003906 105.3125 L 166.054688 105.144531 C 150.402344 101.238281 140.40625 95.019531 136.316406 86.652344 M 66.101562 10.558594 L 228.789062 43.6875 C 228.773438 43.828125 228.769531 43.976562 228.769531 44.117188 L 221.191406 74.183594 L 171.035156 62.445312 L 170.9375 62.417969 L 60.136719 39.484375 L 66.101562 10.558594 M 84.40625 -20.675781 C 123.925781 -12.300781 166.628906 -3.300781 188.738281 1.132812 C 201.144531 3.621094 215.03125 7.25 222.753906 18.84375 C 225.230469 22.546875 226.929688 26.941406 227.882812 31.976562 L 70.851562 0.015625 L 84.40625 -20.675781 M 254.398438 -6.105469 C 260.992188 8.578125 266.832031 27.246094 268.984375 49.585938 C 266.402344 46.996094 263.695312 44.875 261.105469 43.15625 C 254.886719 39.042969 248.574219 36.679688 243.957031 35.378906 L 254.398438 -6.105469 M 293.832031 77.488281 C 304.996094 67.261719 317.96875 63.835938 332.433594 67.3125 L 338.210938 68.652344 C 343.066406 79.0625 347.671875 89.796875 352 100.808594 L 284.382812 88.558594 C 286.539062 85.347656 289.671875 81.292969 293.832031 77.488281 M 361.671875 27.800781 C 353.332031 32.210938 347.21875 39.972656 343.40625 50.917969 C 328.988281 22.109375 312.492188 -4.199219 294.046875 -27.933594 L 278.648438 -27.933594 C 298.722656 -3.105469 316.511719 24.832031 331.933594 55.683594 C 314.4375 52.5625 298.1875 57.351562 284.734375 69.671875 C 284.050781 70.304688 283.386719 70.9375 282.753906 71.566406 C 282.695312 63.910156 282.335938 56.4375 281.664062 49.160156 C 278.355469 13.078125 268.171875 -11.351562 259.472656 -26.207031 L 259.910156 -27.933594 L 242.59375 -27.933594 C 243.605469 -26.371094 244.636719 -24.734375 245.683594 -22.964844 L 234.09375 23 C 233.011719 20.140625 231.660156 17.480469 230.019531 15.03125 C 221.039062 1.542969 205.769531 -3.125 190.601562 -6.167969 C 168.988281 -10.503906 127.621094 -19.210938 88.84375 -27.441406 L 89.171875 -27.933594 L 50.3125 -27.933594 C 57.074219 -26.484375 64.199219 -24.976562 71.558594 -23.410156 L 57.945312 -2.617188 L 36.90625 -6.902344 L 41.75 -27.933594 L 38.539062 -27.933594 C 35.15625 -27.933594 31.855469 -27.582031 28.621094 -27.03125 L 24.558594 -9.417969 L 0.652344 -14.285156 C -2.796875 -11.441406 -5.890625 -8.1875 -8.640625 -4.65625 L 22.03125 1.585938 L 15.4375 30.234375 L -17.511719 23.410156 L -11.261719 -1.042969 C -17.316406 8.054688 -20.980469 18.863281 -21.269531 30.484375 C -21.28125 30.972656 -21.34375 31.460938 -21.34375 31.953125 L -21.34375 38.378906 L -20.320312 34.375 L 12.910156 41.246094 L 5.785156 72.179688 L -21.34375 66.570312 L -21.34375 78.453125 L 3.179688 83.484375 L -4.089844 115.074219 C -9.839844 113.898438 -15.632812 112.714844 -21.34375 111.542969 L -21.34375 122.796875 C -16.375 123.847656 -11.414062 124.894531 -6.585938 125.910156 L -10.800781 144.226562 L -21.34375 141.992188 L -21.34375 153.542969 L -13.332031 155.246094 L -20.339844 185.710938 L -21.34375 185.4375 L -21.34375 219.105469 L 75.707031 216.878906 L 62.476562 198.609375 L 189.5 199.910156 L 181.476562 231.710938 C 185.765625 231.644531 190.070312 231.742188 194.386719 231.992188 L 198.269531 216.625 L 239.160156 223.28125 C 237.324219 228.25 235.347656 233.347656 233.308594 238.503906 C 237.339844 239.605469 241.363281 240.824219 245.382812 242.191406 C 254.132812 220.179688 261.375 198.882812 267.066406 178.375 L 388.496094 199.195312 L 393.785156 212.464844 C 394.128906 213.734375 395.316406 217.730469 397.820312 222.40625 L 397.820312 186.71875 L 397.078125 187.015625 L 381.449219 147.820312 C 377.777344 135.570312 373.816406 123.628906 369.585938 112 L 397.820312 111.261719 L 397.820312 100.023438 L 365.425781 100.875 C 361.648438 91.078125 357.664062 81.523438 353.496094 72.214844 L 397.820312 82.507812 L 397.820312 70.898438 L 353.691406 60.644531 C 356.332031 49.144531 361.242188 41.1875 368.007812 37.527344 C 375.5 33.480469 383.160156 35.648438 383.425781 35.730469 L 397.820312 39.628906 L 397.820312 30.484375 C 397.804688 29.589844 397.691406 28.714844 397.625 27.835938 L 387.4375 25.070312 C 385.730469 24.582031 373.648438 21.464844 361.671875 27.800781 " fill-opacity="1" fill-rule="nonzero"/><path fill="#f4f2ed" d="M 245.382812 242.191406 C 241.363281 240.824219 237.339844 239.605469 233.308594 238.503906 C 235.347656 233.347656 237.324219 228.25 239.160156 223.28125 L 198.269531 216.625 L 194.386719 231.992188 C 194.285156 231.988281 194.175781 231.976562 194.070312 231.972656 C 194.066406 231.972656 194.066406 231.972656 194.066406 231.972656 C 193.921875 231.964844 193.773438 231.953125 193.628906 231.949219 C 193.605469 231.949219 193.589844 231.945312 193.5625 231.945312 C 190.394531 231.777344 187.230469 231.6875 184.078125 231.6875 C 184.074219 231.6875 184.074219 231.6875 184.070312 231.6875 C 183.203125 231.6875 182.339844 231.695312 181.476562 231.710938 L 189.5 199.910156 L 62.476562 198.609375 L 75.707031 216.878906 L -21.34375 219.105469 L -21.34375 185.4375 L -20.339844 185.710938 L -13.332031 155.246094 L -21.34375 153.542969 L -21.34375 141.992188 L -10.800781 144.226562 L -6.585938 125.910156 C -11.414062 124.894531 -16.375 123.847656 -21.34375 122.796875 L -21.34375 111.542969 C -15.632812 112.714844 -9.839844 113.898438 -4.089844 115.074219 L 3.179688 83.484375 L -21.34375 78.453125 L -21.34375 66.570312 L 5.785156 72.179688 L 12.910156 41.246094 L -20.320312 34.375 L -21.34375 38.378906 L -21.34375 31.953125 C -21.34375 31.460938 -21.28125 30.972656 -21.269531 30.484375 C -20.980469 18.863281 -17.316406 8.054688 -11.261719 -1.042969 L -17.511719 23.410156 L 15.4375 30.234375 L 22.03125 1.585938 L -8.640625 -4.65625 C -5.890625 -8.1875 -2.796875 -11.441406 0.652344 -14.285156 L 24.558594 -9.417969 L 28.621094 -27.03125 C 31.855469 -27.582031 35.15625 -27.933594 38.539062 -27.933594 L 41.75 -27.933594 L 36.90625 -6.902344 L 57.945312 -2.617188 L 71.558594 -23.410156 C 64.199219 -24.976562 57.074219 -26.484375 50.3125 -27.933594 L 89.171875 -27.933594 L 88.84375 -27.441406 C 127.621094 -19.210938 168.988281 -10.503906 190.601562 -6.167969 C 205.769531 -3.125 221.039062 1.542969 230.019531 15.03125 C 231.660156 17.480469 233.011719 20.140625 234.09375 23 L 245.683594 -22.964844 C 244.636719 -24.734375 243.605469 -26.371094 242.59375 -27.933594 L 259.910156 -27.933594 L 259.472656 -26.207031 C 268.171875 -11.351562 278.355469 13.078125 281.664062 49.160156 C 282.335938 56.4375 282.695312 63.910156 282.753906 71.566406 C 283.386719 70.9375 284.050781 70.304688 284.734375 69.671875 C 295.523438 59.792969 308.109375 54.753906 321.699219 54.753906 C 325.054688 54.753906 328.46875 55.0625 331.933594 55.683594 C 316.511719 24.832031 298.722656 -3.105469 278.648438 -27.933594 L 294.046875 -27.933594 C 312.492188 -4.199219 328.988281 22.109375 343.40625 50.917969 C 347.21875 39.972656 353.332031 32.210938 361.671875 27.800781 C 367.492188 24.71875 373.335938 23.871094 378.003906 23.871094 C 382.941406 23.871094 386.558594 24.820312 387.4375 25.070312 L 397.625 27.835938 C 397.691406 28.714844 397.804688 29.589844 397.820312 30.484375 L 397.820312 39.628906 L 383.425781 35.730469 C 383.417969 35.730469 383.414062 35.730469 383.414062 35.722656 C 383.203125 35.664062 381.074219 35.078125 378.046875 35.078125 C 378.042969 35.078125 378.042969 35.078125 378.042969 35.078125 C 378.039062 35.078125 378.03125 35.078125 378.027344 35.078125 C 375.214844 35.078125 371.632812 35.589844 368.078125 37.492188 C 368.050781 37.503906 368.027344 37.515625 368.007812 37.527344 C 361.242188 41.1875 356.332031 49.144531 353.691406 60.644531 L 397.820312 70.898438 L 397.820312 82.507812 L 353.496094 72.214844 C 357.664062 81.523438 361.648438 91.078125 365.425781 100.875 L 397.820312 100.023438 L 397.820312 111.261719 L 369.585938 112 C 373.816406 123.628906 377.777344 135.570312 381.449219 147.820312 L 397.078125 187.015625 L 397.820312 186.71875 L 397.820312 222.40625 C 395.316406 217.730469 394.128906 213.734375 393.785156 212.464844 L 388.496094 199.195312 L 267.066406 178.375 C 261.375 198.882812 254.132812 220.179688 245.382812 242.191406 M 241.558594 212.246094 C 241.558594 208.449219 240.492188 205.113281 238.328125 202.195312 C 229.792969 190.625 207.109375 188.796875 206.878906 188.773438 L 206.34375 188.722656 L 205.332031 188.574219 L 201.027344 205.660156 L 241.558594 212.246094 M -12.488281 207.734375 L 28.960938 206.832031 L 29.554688 198.277344 L -10.226562 197.871094 L -12.488281 207.734375 M 41.667969 206.5625 L 52.902344 206.3125 L 47.4375 198.453125 L 42.230469 198.410156 L 41.667969 206.5625 M 208.101562 177.601562 L 208.21875 177.609375 C 211.480469 177.886719 237.085938 180.519531 248.65625 195.691406 C 250.792969 188.953125 252.734375 182.394531 254.511719 176.03125 L 210.574219 167.738281 L 208.101562 177.601562 M 43.007812 187.175781 L 192.324219 188.710938 L 192.828125 186.691406 L 44.582031 164.335938 L 43.007812 187.175781 M -7.644531 186.660156 L 30.335938 187.054688 L 32.03125 162.4375 L -0.921875 157.457031 L -7.644531 186.660156 M 383.601562 186.914062 L 370.683594 154.519531 L 318.601562 147.320312 L 313.773438 174.941406 L 383.601562 186.914062 M 45.367188 153.054688 L 195.597656 175.71875 L 198.1875 165.398438 L 46.488281 136.78125 L 45.367188 153.054688 M 269.960938 167.433594 L 305.472656 173.519531 L 310.257812 146.164062 L 309.203125 146.023438 L 308.988281 145.980469 L 276.207031 139.324219 C 274.46875 148.511719 272.394531 157.886719 269.960938 167.433594 M 213.347656 156.773438 L 257.421875 165.089844 C 259.933594 155.203125 262.011719 145.757812 263.695312 136.785156 L 247.261719 133.445312 C 241.972656 144.417969 229.691406 152.109375 215.417969 152.109375 C 215.125 152.109375 214.828125 152.09375 214.527344 152.089844 L 213.347656 156.773438 M 83.378906 132.265625 L 200.957031 154.4375 L 202.136719 149.75 C 189.628906 145.132812 180.804688 134.164062 180.804688 121.40625 C 180.804688 120.921875 180.820312 120.425781 180.839844 119.9375 L 90.421875 101.378906 L 83.378906 132.265625 M 1.613281 146.460938 L 32.804688 151.15625 L 33.976562 134.328125 C 27.976562 133.097656 17.738281 130.992188 5.746094 128.492188 L 1.613281 146.460938 M 320.546875 136.222656 L 366.726562 142.605469 C 363.488281 132.28125 360.042969 122.210938 356.402344 112.347656 L 352.90625 112.441406 L 325.585938 107.488281 L 320.546875 136.222656 M 193.46875 121.40625 C 193.46875 132.148438 203.316406 140.875 215.417969 140.875 C 227.519531 140.875 237.367188 132.148438 237.367188 121.40625 C 237.367188 110.671875 227.519531 101.949219 215.417969 101.949219 C 203.316406 101.949219 193.46875 110.671875 193.46875 121.40625 M 278.152344 128.199219 L 311.582031 134.980469 L 312.210938 135.070312 L 317.292969 105.984375 L 281.664062 99.523438 C 280.902344 108.84375 279.726562 118.414062 278.152344 128.199219 M 47.28125 125.449219 L 75.132812 130.703125 L 82.183594 99.695312 L 49.511719 92.992188 L 47.28125 125.449219 M 249.996094 122.480469 L 265.644531 125.652344 C 267.261719 115.5 268.398438 105.957031 269.101562 97.023438 L 230.683594 88.023438 L 229.347656 93.3125 C 241.515625 98.074219 250.027344 108.871094 250.027344 121.40625 C 250.027344 121.765625 250.015625 122.117188 249.996094 122.480469 M 8.25 117.585938 C 17.636719 119.492188 26.652344 121.324219 34.773438 122.96875 L 37.007812 90.425781 L 15.527344 86.015625 L 8.25 117.585938 M 166.003906 105.3125 L 183.769531 108.988281 C 189.164062 98.226562 201.320312 90.707031 215.417969 90.707031 C 215.957031 90.707031 216.492188 90.726562 217.011719 90.742188 L 218.421875 85.152344 L 167.886719 73.316406 L 136.167969 66.753906 C 135.203125 69.347656 134.191406 73.046875 134.191406 77.148438 C 134.195312 80.191406 134.757812 83.449219 136.316406 86.652344 C 140.40625 95.019531 150.402344 101.238281 166.054688 105.144531 L 166.003906 105.3125 M 352 100.808594 C 347.671875 89.796875 343.066406 79.0625 338.210938 68.652344 L 332.433594 67.3125 C 332.371094 67.296875 332.3125 67.285156 332.253906 67.269531 C 332.210938 67.257812 332.160156 67.246094 332.117188 67.234375 C 328.582031 66.410156 325.136719 66 321.785156 66 C 321.777344 66 321.777344 66 321.777344 66 C 321.777344 66 321.773438 66 321.773438 66 C 311.535156 66 302.179688 69.84375 293.832031 77.488281 C 289.671875 81.292969 286.539062 85.347656 284.382812 88.558594 L 352 100.808594 M 128.929688 97.648438 C 127.21875 95.554688 125.777344 93.34375 124.632812 90.980469 C 122.335938 86.226562 121.519531 81.476562 121.523438 77.113281 C 121.523438 72.097656 122.613281 67.59375 123.789062 64.191406 L 100.003906 59.265625 L 92.957031 90.210938 L 128.929688 97.648438 M 51.464844 81.617188 L 84.734375 88.507812 L 91.78125 57.574219 L 57.859375 50.554688 L 51.464844 81.617188 M 233.4375 77.058594 L 269.800781 85.578125 C 269.890625 83.460938 269.957031 81.390625 270.007812 79.355469 C 268.558594 67.601562 263.046875 58.464844 253.519531 52.148438 C 249.109375 49.230469 244.613281 47.445312 241.175781 46.390625 L 233.4375 77.058594 M 18.125 74.726562 L 39.117188 79.066406 L 45.519531 47.996094 L 25.242188 43.800781 L 18.125 74.726562 M 60.136719 39.484375 L 170.9375 62.417969 L 171.035156 62.445312 L 221.191406 74.183594 L 228.769531 44.117188 C 228.769531 43.976562 228.773438 43.828125 228.789062 43.6875 L 66.101562 10.558594 L 60.136719 39.484375 M 268.984375 49.585938 C 266.832031 27.246094 260.992188 8.578125 254.398438 -6.105469 L 243.957031 35.378906 C 248.574219 36.679688 254.886719 39.042969 261.105469 43.15625 C 263.695312 44.875 266.402344 46.996094 268.984375 49.585938 M 27.769531 32.789062 L 47.796875 36.933594 L 53.738281 8.046875 L 34.371094 4.105469 L 27.769531 32.789062 M 227.882812 31.976562 C 226.929688 26.941406 225.230469 22.546875 222.753906 18.84375 C 215.03125 7.25 201.144531 3.621094 188.738281 1.132812 C 166.628906 -3.300781 123.925781 -12.300781 84.40625 -20.675781 L 70.851562 0.015625 L 227.882812 31.976562 " fill-opacity="1" fill-rule="nonzero"/><path fill="#c8bba1" d="M 341.753906 304.75 L 397.820312 275.941406 L 397.820312 249.949219 L 323.667969 287.933594 C 329.824219 293.199219 335.855469 298.820312 341.753906 304.75 " fill-opacity="1" fill-rule="nonzero"/><path fill="#f4f2ed" d="M 341.753906 304.75 C 335.855469 298.820312 329.824219 293.199219 323.667969 287.933594 L 397.820312 249.949219 L 397.820312 275.941406 L 341.753906 304.75 " fill-opacity="1" fill-rule="nonzero"/><path fill="#29abe2" d="M 236.632812 263.289062 C 239.699219 256.179688 242.613281 249.152344 245.382812 242.191406 C 241.363281 240.824219 237.339844 239.605469 233.308594 238.503906 C 230.574219 245.382812 227.667969 252.410156 224.570312 259.609375 C 228.59375 260.683594 232.613281 261.910156 236.632812 263.289062 " fill-opacity="1" fill-rule="nonzero"/><path fill="#49effa" d="M 236.632812 263.289062 C 232.613281 261.910156 228.59375 260.683594 224.570312 259.609375 C 227.667969 252.410156 230.574219 245.382812 233.308594 238.503906 C 237.339844 239.605469 241.363281 240.824219 245.382812 242.191406 C 242.613281 249.152344 239.699219 256.179688 236.632812 263.289062 " fill-opacity="1" fill-rule="nonzero"/><path fill="#29abe2" d="M 188.765625 254.265625 L 194.386719 231.992188 C 190.070312 231.742188 185.765625 231.644531 181.476562 231.710938 L 175.769531 254.378906 C 180.078125 254.140625 184.417969 254.109375 188.765625 254.265625 " fill-opacity="1" fill-rule="nonzero"/><path fill="#49effa" d="M 175.769531 254.378906 L 181.476562 231.710938 C 182.339844 231.695312 183.207031 231.6875 184.070312 231.6875 C 187.496094 231.6875 190.9375 231.792969 194.386719 231.992188 L 188.765625 254.265625 C 188.707031 254.261719 188.648438 254.261719 188.585938 254.261719 C 186.878906 254.203125 185.171875 254.167969 183.46875 254.167969 C 183.460938 254.167969 183.460938 254.167969 183.460938 254.167969 C 183.457031 254.167969 183.457031 254.167969 183.449219 254.167969 C 181.027344 254.167969 178.601562 254.226562 176.191406 254.359375 C 176.050781 254.363281 175.910156 254.371094 175.769531 254.378906 " fill-opacity="1" fill-rule="nonzero"/><path fill="#29abe2" d="M 320.15625 316.859375 C 321.28125 315.921875 322.398438 314.980469 323.605469 314.074219 L 341.753906 304.75 C 335.855469 298.820312 329.824219 293.199219 323.667969 287.933594 L 300.898438 299.609375 C 307.472656 304.917969 313.886719 310.699219 320.15625 316.859375 " fill-opacity="1" fill-rule="nonzero"/><path fill="#49effa" d="M 320.15625 316.859375 C 313.886719 310.699219 307.472656 304.917969 300.898438 299.609375 L 323.667969 287.933594 C 329.824219 293.199219 335.855469 298.820312 341.753906 304.75 L 323.605469 314.074219 C 322.398438 314.980469 321.28125 315.921875 320.15625 316.859375 " fill-opacity="1" fill-rule="nonzero"/><path fill="#009245" d="M 14.917969 306.734375 L -8.714844 321.714844 L -2.816406 333.695312 L 16.605469 337.441406 L 23.359375 332.945312 L 84.992188 311.230469 L 77.394531 288.761719 L 14.917969 306.734375 " fill-opacity="1" fill-rule="nonzero"/><path fill="#009245" d="M -3.65625 338.929688 L -5.34375 357.65625 L 7.3125 343.4375 Z M -3.65625 338.929688 " fill-opacity="1" fill-rule="nonzero"/><path fill="#009245" d="M -0.28125 368.140625 L 16.605469 383.867188 L 28.421875 365.140625 L 16.605469 341.183594 L -0.28125 368.140625 " fill-opacity="1" fill-rule="nonzero"/><path fill="#009245" d="M 32.640625 364.390625 L 43.613281 369.636719 L 46.996094 329.957031 L 25.890625 338.179688 L 32.640625 364.390625 " fill-opacity="1" fill-rule="nonzero"/><path fill="#009245" d="M 31.800781 373.375 L 26.320312 390.039062 C 27.054688 390.191406 27.824219 390.277344 28.5625 390.414062 L 46.996094 383.867188 L 31.800781 373.375 " fill-opacity="1" fill-rule="nonzero"/><path fill="#009245" d="M 129.730469 312.726562 L 101.871094 318.722656 L 88.363281 315.722656 L 52.902344 328.453125 L 51.214844 377.113281 L 59.835938 391.320312 L 103.460938 391.320312 L 145.769531 358.402344 L 129.730469 312.726562 " fill-opacity="1" fill-rule="nonzero"/><path fill="#009245" d="M 81.609375 287.269531 L 85.835938 301.5 L 109.464844 295.511719 L 114.535156 305.230469 L 103.558594 308.230469 L 105.25 313.476562 L 128.882812 309.734375 L 116.21875 276.035156 L 81.609375 287.269531 " fill-opacity="1" fill-rule="nonzero"/><path fill="#009245" d="M 154.21875 282.777344 L 140.703125 285.761719 L 136.484375 270.796875 L 126.351562 275.285156 L 136.484375 305.980469 L 159.277344 300.746094 L 154.21875 282.777344 " fill-opacity="1" fill-rule="nonzero"/><path fill="#009245" d="M 160.972656 305.230469 L 137.320312 312.726562 L 143.242188 326.957031 L 164.34375 320.96875 L 160.972656 305.230469 " fill-opacity="1" fill-rule="nonzero"/><path fill="#009245" d="M 171.097656 327.707031 L 146.613281 334.449219 L 152.53125 352.410156 L 175.320312 345.660156 L 171.097656 327.707031 " fill-opacity="1" fill-rule="nonzero"/><path fill="#009245" d="M 355.132812 -3.269531 L 360.203125 4.222656 L 348.382812 10.960938 L 352.605469 16.957031 L 363.574219 13.949219 L 378.722656 -11.777344 C 371.960938 -18.085938 363.761719 -22.867188 354.65625 -25.519531 L 338.257812 -18.246094 L 331.300781 -27.933594 L 316.117188 -27.933594 L 337.40625 4.222656 L 355.132812 -3.269531 " fill-opacity="1" fill-rule="nonzero"/><path fill="#009245" d="M 274.929688 184.683594 C 274.089844 186.929688 263.113281 219.875 263.113281 219.875 L 332.347656 195.914062 L 274.929688 184.683594 " fill-opacity="1" fill-rule="nonzero"/><path fill="#009245" d="M 258.894531 227.359375 L 255.523438 240.09375 L 290.125 257.320312 L 307.011719 212.394531 L 258.894531 227.359375 " fill-opacity="1" fill-rule="nonzero"/><path fill="#009245" d="M 318.839844 210.140625 L 306.171875 240.847656 L 334.03125 246.089844 L 339.945312 234.097656 L 329.8125 231.867188 L 332.347656 221.378906 L 342.46875 225.867188 L 366.113281 198.914062 L 352.605469 195.914062 L 318.839844 210.140625 " fill-opacity="1" fill-rule="nonzero"/><path fill="#009245" d="M 298.5625 260.316406 L 323.90625 279.785156 L 367.789062 259.570312 L 304.480469 249.835938 L 298.5625 260.316406 " fill-opacity="1" fill-rule="nonzero"/><path fill="#009245" d="M 348.382812 245.335938 L 382.148438 252.824219 L 393.125 245.335938 L 359.355469 228.113281 L 348.382812 245.335938 " fill-opacity="1" fill-rule="nonzero"/><path fill="#009245" d="M 361.886719 222.132812 L 397.820312 236.148438 L 397.820312 231.238281 L 375.394531 204.902344 L 361.886719 222.132812 " fill-opacity="1" fill-rule="nonzero"/><path fill="#009245" d="M 181.222656 205.65625 L 82.460938 204.902344 L 104.402344 241.589844 C 122.128906 229.613281 175.320312 225.121094 175.320312 225.121094 L 181.222656 205.65625 " fill-opacity="1" fill-rule="nonzero"/><path fill="#009245" d="M 391.4375 354.660156 C 391.4375 354.660156 392.125 354.519531 393.226562 354.300781 C 396 347.664062 397.640625 340.457031 397.820312 332.902344 L 397.820312 286.332031 L 358.507812 309.734375 L 391.4375 354.660156 " fill-opacity="1" fill-rule="nonzero"/><path fill="#009245" d="M 313.773438 350.917969 L 303.640625 356.152344 L 307.859375 369.636719 L 351.761719 363.636719 L 324.746094 327.707031 L 307.859375 338.929688 L 313.773438 350.917969 " fill-opacity="1" fill-rule="nonzero"/><path fill="#009245" d="M 273.25 365.890625 C 269.871094 367.390625 198.960938 382.367188 198.960938 382.367188 L 183.835938 391.320312 L 223.027344 391.320312 C 252.054688 383.621094 279.152344 376.375 279.152344 376.375 C 279.152344 376.375 276.617188 364.390625 273.25 365.890625 " fill-opacity="1" fill-rule="nonzero"/><path fill="#009245" d="M 232.722656 292.511719 L 268.183594 310.476562 L 291.8125 300.746094 C 275.777344 285.019531 243.703125 272.296875 243.703125 272.296875 L 232.722656 292.511719 " fill-opacity="1" fill-rule="nonzero"/><path fill="#009245" d="M 214.148438 338.179688 L 259.75 317.214844 L 230.1875 299.996094 Z M 214.148438 338.179688 " fill-opacity="1" fill-rule="nonzero"/><path fill="#009245" d="M 215.417969 133.757812 C 223.109375 133.757812 229.347656 128.230469 229.347656 121.40625 C 229.347656 114.585938 223.109375 109.058594 215.417969 109.058594 C 207.726562 109.058594 201.492188 114.585938 201.492188 121.40625 C 201.492188 128.230469 207.726562 133.757812 215.417969 133.757812 " fill-opacity="1" fill-rule="nonzero"/><path fill="#808080" d="M 192.28125 51.109375 L 210.675781 55.609375 L 212.695312 49.125 L 171.195312 38.945312 L 169.332031 44.957031 L 150.929688 40.445312 L 148.917969 46.933594 L 190.414062 57.109375 L 192.28125 51.109375 " fill-opacity="1" fill-rule="nonzero"/><path fill="#808080" d="M 185.445312 90.335938 L 161.8125 85.09375 L 164.34375 76.859375 L 153.371094 76.109375 L 148.304688 91.078125 L 182.914062 100.816406 L 185.445312 90.335938 " fill-opacity="1" fill-rule="nonzero"/><path fill="#808080" d="M 1.410156 269.304688 L 14.078125 269.304688 L 14.078125 255.824219 L 1.410156 255.824219 L 1.410156 269.304688 " fill-opacity="1" fill-rule="nonzero"/><path fill="#808080" d="M 11.539062 228.113281 L -21.34375 228.113281 L -21.34375 244.589844 L 11.539062 244.589844 L 11.539062 228.113281 " fill-opacity="1" fill-rule="nonzero"/><path fill="#808080" d="M 25.046875 263.308594 L 40.246094 263.308594 L 40.246094 233.359375 L 25.046875 233.359375 L 25.046875 263.308594 " fill-opacity="1" fill-rule="nonzero"/><path fill="#808080" d="M 103.558594 127.773438 L 137.320312 135.253906 L 139.859375 124.78125 L 106.089844 117.292969 L 103.558594 127.773438 " fill-opacity="1" fill-rule="nonzero"/><path fill="#808080" d="M 135.644531 36.417969 L 135.644531 27.4375 L 92.589844 27.4375 L 92.589844 41.664062 L 123.8125 41.664062 L 123.8125 36.417969 L 135.644531 36.417969 " fill-opacity="1" fill-rule="nonzero"/><path fill="#808080" d="M 308.707031 28.183594 L 296.035156 28.183594 L 296.035156 48.402344 L 308.707031 48.402344 L 308.707031 28.183594 " fill-opacity="1" fill-rule="nonzero"/><path fill="#808080" d="M 289.285156 124.78125 L 304.480469 124.78125 L 304.480469 110.546875 L 289.285156 110.546875 L 289.285156 124.78125 " fill-opacity="1" fill-rule="nonzero"/><path fill="#808080" d="M 337.40625 158.484375 L 330.652344 158.484375 L 330.652344 171.199219 L 337.40625 171.199219 L 337.40625 158.484375 " fill-opacity="1" fill-rule="nonzero"/><path fill="#808080" d="M 351.542969 160.910156 L 344.230469 160.332031 L 342.792969 174.503906 L 350.105469 175.082031 L 351.542969 160.910156 " fill-opacity="1" fill-rule="nonzero"/><path fill="#808080" d="M 369.484375 167.460938 L 361.886719 167.460938 L 361.886719 179.445312 L 369.484375 179.445312 L 369.484375 167.460938 " fill-opacity="1" fill-rule="nonzero"/><path fill="#808080" d="M 180.984375 313.546875 L 166.601562 266.179688 L 154.742188 269.015625 L 169.125 316.378906 L 180.984375 313.546875 " fill-opacity="1" fill-rule="nonzero"/><path fill="#808080" d="M 69.800781 174.949219 L 54.59375 174.949219 L 54.59375 181.691406 L 69.800781 181.691406 L 69.800781 174.949219 " fill-opacity="1" fill-rule="nonzero"/><path fill="#808080" d="M 69.800781 102.3125 L 59.65625 102.3125 L 59.65625 118.792969 L 69.800781 118.792969 L 69.800781 102.3125 " fill-opacity="1" fill-rule="nonzero"/><path fill="#808080" d="M 100.464844 0.363281 L 173.703125 15.269531 L 176.71875 3.59375 L 103.492188 -11.3125 L 100.464844 0.363281 " fill-opacity="1" fill-rule="nonzero"/><path fill="#808080" d="M 47.839844 256.5625 L 63.035156 256.5625 L 63.035156 231.867188 L 47.839844 231.867188 L 47.839844 256.5625 " fill-opacity="1" fill-rule="nonzero"/><path fill="#808080" d="M 315.464844 79.101562 L 323.054688 79.101562 L 323.054688 85.835938 L 315.464844 85.835938 L 315.464844 89.582031 L 330.652344 89.582031 L 330.652344 76.109375 L 315.464844 76.109375 L 315.464844 79.101562 " fill-opacity="1" fill-rule="nonzero"/><path fill="#808080" d="M 293.503906 -2.511719 L 285.070312 -2.511719 L 285.070312 30.429688 L 293.503906 30.429688 L 293.503906 -2.511719 " fill-opacity="1" fill-rule="nonzero"/><path fill="#808080" d="M 323.054688 79.101562 L 302.785156 79.101562 L 302.785156 85.835938 L 323.054688 85.835938 L 323.054688 79.101562 " fill-opacity="1" fill-rule="nonzero"/><path fill="#808080" d="M 123.8125 36.417969 L 123.8125 46.15625 L 139.019531 46.15625 L 139.019531 36.417969 L 123.8125 36.417969 " fill-opacity="1" fill-rule="nonzero"/><path fill="#808080" d="M 190.519531 19.945312 L 202.332031 19.945312 L 202.332031 7.964844 L 190.519531 7.964844 L 190.519531 19.945312 " fill-opacity="1" fill-rule="nonzero"/><path fill="#808080" d="M 10.699219 165.210938 L 3.945312 165.210938 L 3.945312 180.945312 L 10.699219 180.945312 L 10.699219 165.210938 " fill-opacity="1" fill-rule="nonzero"/><path fill="#808080" d="M 24.207031 167.460938 L 19.132812 167.460938 L 19.132812 183.1875 L 24.207031 183.1875 L 24.207031 167.460938 " fill-opacity="1" fill-rule="nonzero"/><path fill="#808080" d="M -16.320312 62.628906 L 3.097656 62.628906 L 3.097656 43.910156 L -16.320312 43.910156 L -16.320312 62.628906 " fill-opacity="1" fill-rule="nonzero"/><path fill="#808080" d="M 70.644531 238.601562 L 93.429688 238.601562 L 93.429688 229.613281 L 70.644531 229.613281 L 70.644531 238.601562 " fill-opacity="1" fill-rule="nonzero"/><path fill="#b9c5f0" d="M 234.273438 147.59375 L 196.265625 189.789062 C 191.917969 195.777344 183.183594 195.8125 178.792969 189.855469 L 139.199219 145.925781 C 129.445312 135.226562 124.1875 118.191406 124.1875 102.554688 C 124.1875 69.324219 154.410156 40.835938 187.570312 40.835938 C 220.734375 40.835938 250.953125 69.324219 250.953125 102.554688 C 250.953125 119.554688 245.585938 136.652344 234.273438 147.59375 Z M 234.273438 147.59375 " fill-opacity="1" fill-rule="evenodd"/><path fill="#d5f3ff" d="M 224.707031 142.953125 L 187.695312 183.3125 C 183.464844 189.042969 174.957031 189.074219 170.683594 183.375 L 134.195312 140.921875 C 124.699219 130.6875 124.1875 114.171875 124.1875 99.21875 C 124.1875 72.53125 155.878906 40.835938 179.230469 40.835938 C 211.523438 40.835938 240.945312 68.085938 240.945312 99.871094 C 240.945312 116.132812 232.605469 134.25 224.707031 142.953125 Z M 224.707031 142.953125 " fill-opacity="1" fill-rule="evenodd"/><path fill="#87d1ee" d="M 227.929688 104.222656 C 227.929688 126.335938 210.007812 144.257812 187.898438 144.257812 C 165.789062 144.257812 147.867188 126.335938 147.867188 104.222656 C 147.867188 82.113281 165.789062 64.191406 187.898438 64.191406 C 210.007812 64.191406 227.929688 82.113281 227.929688 104.222656 Z M 227.929688 104.222656 " fill-opacity="1" fill-rule="nonzero"/><path fill="#9ed44a" d="M 174.554688 77.535156 C 174.554688 73.53125 168.992188 70.304688 166.214844 69.195312 C 163.988281 70.863281 158.539062 75.867188 154.539062 82.539062 C 146.53125 95.882812 146.199219 104.222656 149.535156 115.902344 C 152.125 124.972656 162.320312 135.363281 167.882812 139.253906 C 171.21875 134.804688 178.222656 124.574219 179.558594 119.238281 C 181.226562 112.566406 179.558594 109.226562 174.554688 109.226562 C 169.550781 109.226562 172.886719 105.890625 171.21875 100.886719 C 169.550781 95.882812 162.878906 97.550781 162.878906 94.214844 C 162.878906 90.878906 174.554688 82.539062 174.554688 77.535156 Z M 174.554688 77.535156 " fill-opacity="1" fill-rule="nonzero"/><path fill="#9ed44a" d="M 197.90625 87.542969 C 197.90625 84.875 210.136719 79.757812 216.253906 77.535156 C 219.03125 80.871094 225.261719 90.210938 227.929688 100.886719 C 230.597656 111.5625 222.367188 125.355469 217.921875 130.914062 C 216.253906 124.796875 212.582031 111.5625 211.25 107.558594 C 209.582031 102.554688 201.242188 102.554688 199.574219 100.886719 C 197.90625 99.21875 197.90625 90.878906 197.90625 87.542969 Z M 197.90625 87.542969 " fill-opacity="1" fill-rule="nonzero"/><g clip-path="url(#cb11e8dc7e)"><path fill="#000000" d="M 180.054688 187.363281 C 184.039062 191.902344 191.105469 191.902344 195.089844 187.363281 L 232.378906 144.925781 L 232.390625 144.917969 C 241.863281 134.222656 247.617188 120.125 247.617188 104.660156 C 247.617188 71.230469 220.714844 44.171875 187.570312 44.171875 C 154.429688 44.171875 127.523438 71.230469 127.523438 104.660156 C 127.523438 119.992188 133.183594 133.984375 142.515625 144.644531 Z M 200.101562 191.769531 C 193.457031 199.328125 181.683594 199.328125 175.042969 191.769531 L 137.496094 149.039062 C 127.136719 137.207031 120.851562 121.664062 120.851562 104.660156 C 120.851562 67.589844 150.703125 37.5 187.570312 37.5 C 224.441406 37.5 254.292969 67.589844 254.292969 104.660156 C 254.292969 121.808594 247.902344 137.464844 237.386719 149.335938 L 237.382812 149.339844 Z M 166.503906 74.171875 C 157.054688 80.808594 150.875 91.796875 150.875 104.222656 C 150.875 116.667969 157.070312 127.667969 166.542969 134.304688 L 171.316406 125.949219 L 176.378906 116.664062 C 177.386719 114.816406 176.050781 112.566406 173.945312 112.566406 C 170.417969 112.566406 167.554688 109.703125 167.554688 106.175781 L 167.554688 103.597656 C 167.554688 102.101562 166.34375 100.886719 164.84375 100.886719 C 159.179688 100.886719 156.34375 94.039062 160.347656 90.03125 L 169.449219 80.929688 C 170.9375 79.441406 170.691406 76.964844 168.941406 75.796875 Z M 173.035156 70.519531 C 177.492188 68.59375 182.40625 67.527344 187.570312 67.527344 C 196.734375 67.527344 205.117188 70.886719 211.546875 76.441406 L 200.402344 81.085938 C 196.671875 82.636719 194.242188 86.28125 194.242188 90.324219 L 194.242188 95.097656 C 194.242188 98.886719 196.386719 102.351562 199.777344 104.046875 L 206.6875 107.503906 C 207.558594 107.9375 208.195312 108.734375 208.429688 109.679688 L 213.546875 130.144531 C 206.90625 136.804688 197.71875 140.921875 187.570312 140.921875 C 182.136719 140.921875 176.972656 139.738281 172.332031 137.617188 L 177.140625 129.203125 L 182.238281 119.859375 C 185.625 113.648438 181.234375 106.09375 174.226562 105.894531 L 174.226562 103.597656 C 174.226562 98.660156 170.414062 94.613281 165.574219 94.242188 L 174.167969 85.648438 C 178.519531 81.296875 177.929688 74.125 173.035156 70.519531 Z M 202.96875 87.242188 L 216.476562 81.613281 C 221.359375 87.847656 224.265625 95.695312 224.265625 104.222656 C 224.265625 111.3125 222.257812 117.933594 218.773438 123.546875 L 214.902344 108.058594 C 214.195312 105.226562 212.285156 102.84375 209.671875 101.535156 L 202.757812 98.082031 C 201.628906 97.515625 200.914062 96.359375 200.914062 95.097656 L 200.914062 90.324219 C 200.914062 88.976562 201.726562 87.761719 202.96875 87.242188 Z M 144.203125 104.222656 C 144.203125 80.269531 163.621094 60.851562 187.570312 60.851562 C 211.523438 60.851562 230.9375 80.269531 230.9375 104.222656 C 230.9375 128.175781 211.523438 147.59375 187.570312 147.59375 C 163.621094 147.59375 144.203125 128.175781 144.203125 104.222656 Z M 150.875 204.308594 C 143.507812 204.308594 137.53125 210.285156 137.53125 217.65625 C 137.53125 225.023438 143.507812 231 150.875 231 L 224.265625 231 C 231.636719 231 237.609375 225.023438 237.609375 217.65625 C 237.609375 210.285156 231.636719 204.308594 224.265625 204.308594 Z M 144.203125 217.65625 C 144.203125 213.96875 147.191406 210.984375 150.875 210.984375 L 224.265625 210.984375 C 227.953125 210.984375 230.9375 213.96875 230.9375 217.65625 C 230.9375 221.339844 227.953125 224.328125 224.265625 224.328125 L 150.875 224.328125 C 147.191406 224.328125 144.203125 221.339844 144.203125 217.65625 Z M 144.203125 217.65625 " fill-opacity="1" fill-rule="evenodd"/></g><g clip-path="url(#fcdc1a7474)"><g clip-path="url(#bccc3e3f41)"><path fill="#25c19b" d="M 146.875 63.085938 L 228.125 63.085938 L 228.125 144.335938 L 146.875 144.335938 Z M 146.875 63.085938 " fill-opacity="1" fill-rule="nonzero"/></g></g><path fill="#2dad9d" d="M 270.507812 221.171875 L 270.507812 228.605469 C 270.507812 238.8125 262.207031 247.089844 251.96875 247.089844 L 122.863281 247.089844 C 112.625 247.089844 104.324219 238.8125 104.324219 228.605469 L 104.324219 221.171875 Z M 270.507812 221.171875 " fill-opacity="1" fill-rule="nonzero"/><g clip-path="url(#8176b427a6)"><path fill="#000000" d="M 251.96875 248.132812 L 122.863281 248.132812 C 112.066406 248.132812 103.28125 239.371094 103.28125 228.605469 L 103.28125 221.171875 C 103.28125 220.59375 103.746094 220.128906 104.324219 220.128906 C 104.902344 220.128906 105.367188 220.59375 105.367188 221.171875 L 105.367188 228.605469 C 105.367188 238.222656 113.214844 246.050781 122.863281 246.050781 L 251.96875 246.050781 C 261.617188 246.050781 269.464844 238.222656 269.464844 228.605469 L 269.464844 221.171875 C 269.464844 220.59375 269.929688 220.128906 270.507812 220.128906 C 271.085938 220.128906 271.550781 220.59375 271.550781 221.171875 L 271.550781 228.605469 C 271.550781 239.371094 262.765625 248.132812 251.96875 248.132812 Z M 251.96875 248.132812 " fill-opacity="1" fill-rule="nonzero"/></g><path fill="#ffffff" d="M 122.863281 239.65625 C 112.625 239.65625 104.324219 231.378906 104.324219 221.171875 C 104.324219 210.960938 112.625 202.683594 122.863281 202.683594 L 251.96875 202.683594 C 262.207031 202.683594 270.507812 210.960938 270.507812 221.171875 C 270.507812 231.378906 262.207031 239.65625 251.96875 239.65625 Z M 122.863281 239.65625 " fill-opacity="1" fill-rule="nonzero"/><g clip-path="url(#cf6afaa962)"><path fill="#000000" d="M 105.238281 227.960938 C 104.800781 227.960938 104.390625 227.683594 104.246094 227.242188 C 103.605469 225.285156 103.28125 223.246094 103.28125 221.171875 C 103.28125 210.40625 112.066406 201.644531 122.863281 201.644531 L 240.753906 201.644531 C 241.332031 201.644531 241.796875 202.109375 241.796875 202.683594 C 241.796875 203.261719 241.332031 203.726562 240.753906 203.726562 L 122.863281 203.726562 C 113.214844 203.726562 105.367188 211.550781 105.367188 221.171875 C 105.367188 223.027344 105.65625 224.851562 106.230469 226.59375 C 106.40625 227.140625 106.109375 227.726562 105.5625 227.90625 C 105.453125 227.941406 105.347656 227.957031 105.238281 227.957031 Z M 105.238281 227.960938 " fill-opacity="1" fill-rule="nonzero"/></g><path fill="#000000" d="M 127.269531 240.695312 L 122.863281 240.695312 C 117.214844 240.695312 111.84375 238.261719 108.117188 234.023438 C 107.738281 233.589844 107.785156 232.933594 108.214844 232.554688 C 108.648438 232.175781 109.308594 232.21875 109.6875 232.652344 C 113.011719 236.441406 117.8125 238.617188 122.859375 238.617188 L 127.265625 238.617188 C 127.84375 238.617188 128.308594 239.082031 128.308594 239.65625 C 128.308594 240.230469 127.84375 240.695312 127.265625 240.695312 Z M 127.269531 240.695312 " fill-opacity="1" fill-rule="nonzero"/><g clip-path="url(#136777df2e)"><path fill="#000000" d="M 251.96875 240.695312 L 134.488281 240.695312 C 133.914062 240.695312 133.445312 240.230469 133.445312 239.65625 C 133.445312 239.082031 133.914062 238.617188 134.488281 238.617188 L 251.964844 238.617188 C 261.613281 238.617188 269.460938 230.789062 269.460938 221.171875 C 269.460938 218.808594 268.996094 216.519531 268.082031 214.367188 C 267.855469 213.835938 268.105469 213.226562 268.632812 213.003906 C 269.164062 212.78125 269.777344 213.027344 270 213.554688 C 271.027344 215.96875 271.546875 218.53125 271.546875 221.171875 C 271.546875 231.9375 262.765625 240.695312 251.964844 240.695312 Z M 251.96875 240.695312 " fill-opacity="1" fill-rule="nonzero"/></g><g clip-path="url(#3c03cfc50a)"><path fill="#000000" d="M 266.300781 210.484375 C 266 210.484375 265.699219 210.355469 265.492188 210.101562 C 262.15625 206.050781 257.222656 203.722656 251.964844 203.722656 L 246.605469 203.722656 C 246.027344 203.722656 245.5625 203.257812 245.5625 202.683594 C 245.5625 202.105469 246.027344 201.640625 246.605469 201.640625 L 251.964844 201.640625 C 257.851562 201.640625 263.367188 204.242188 267.105469 208.78125 C 267.46875 209.226562 267.40625 209.878906 266.960938 210.246094 C 266.765625 210.40625 266.535156 210.480469 266.300781 210.480469 Z M 266.300781 210.484375 " fill-opacity="1" fill-rule="nonzero"/></g><path fill="#000000" d="M 167.742188 111.65625 L 171.726562 113.820312 L 171.640625 114.476562 L 167.742188 112.457031 Z M 167.742188 111.65625 " fill-opacity="1" fill-rule="nonzero"/><path fill="#000000" d="M 168.125 113.605469 L 170.984375 115.410156 L 170.984375 116.101562 L 168.125 114.476562 Z M 168.125 113.605469 " fill-opacity="1" fill-rule="nonzero"/><g clip-path="url(#fd121fc774)"><path fill="#000000" d="M 167.480469 110.441406 L 173.242188 113.195312 C 174.175781 119.425781 175.890625 124.949219 178.464844 129.695312 C 180.074219 130.144531 181.714844 130.390625 183.378906 130.410156 C 180.992188 120.546875 180.453125 110.449219 180.5625 100.335938 L 179.65625 100.789062 L 179.992188 88.867188 L 175.457031 91.59375 L 175.21875 103.011719 L 172.453125 104.421875 C 172.523438 106.324219 172.648438 108.175781 172.835938 109.976562 L 165.703125 106.546875 C 162.0625 107.773438 158.675781 107.859375 156.234375 107.023438 C 157.234375 112.253906 158.652344 116.363281 160.414062 119.5625 C 161.320312 121.203125 162.597656 122.609375 164.132812 123.683594 C 166.964844 125.667969 169.980469 127.308594 173.265625 128.429688 C 169.070312 122.035156 166.53125 115.015625 165.773438 107.3125 L 172.90625 110.703125 L 172.90625 110.628906 C 172.980469 111.28125 173.0625 111.929688 173.152344 112.570312 L 167.480469 109.640625 Z M 167.480469 110.441406 " fill-opacity="1" fill-rule="nonzero"/></g><g clip-path="url(#c81047c2e5)"><path fill="#000000" d="M 182.160156 104.921875 L 182.851562 105.375 C 183.132812 113.515625 183.726562 121.894531 184.617188 130.503906 L 184.308594 130.503906 C 183.285156 123.015625 182.625 114.304688 182.160156 104.921875 Z M 182.160156 104.921875 " fill-opacity="1" fill-rule="nonzero"/></g><g clip-path="url(#da71ebfaab)"><path fill="#000000" d="M 184.332031 105.949219 L 185.144531 106.523438 C 185.300781 115.417969 185.523438 123.679688 185.90625 130.53125 L 185.621094 130.503906 C 185.175781 123.636719 184.75 115.113281 184.332031 105.949219 Z M 184.332031 105.949219 " fill-opacity="1" fill-rule="nonzero"/></g><g clip-path="url(#75ab53e9f3)"><path fill="#000000" d="M 186.257812 107.09375 L 187.152344 107.542969 L 187.0625 130.601562 L 186.757812 130.601562 C 186.75 122.011719 186.609375 114.050781 186.257812 107.09375 Z M 186.257812 107.09375 " fill-opacity="1" fill-rule="nonzero"/></g><g clip-path="url(#528edf7444)"><path fill="#000000" d="M 188.046875 108.007812 L 188.777344 108.582031 L 188.011719 130.617188 L 187.632812 130.617188 C 188.042969 123.75 188.136719 116.109375 188.046875 108.007812 Z M 188.046875 108.007812 " fill-opacity="1" fill-rule="nonzero"/></g><g clip-path="url(#22b1ec14ff)"><path fill="#000000" d="M 196.332031 106.695312 L 196.542969 101.378906 L 191.554688 96.792969 L 189.28125 98.011719 L 189.121094 85.507812 L 187.761719 84.039062 L 187.652344 80.507812 L 185.058594 76.636719 L 183.019531 78.105469 L 182.734375 82.03125 L 181.695312 82.785156 L 181.230469 89.429688 L 183.269531 91.0625 L 183.269531 101.757812 L 184.917969 102.761719 L 185.257812 80.078125 L 185.003906 80.402344 L 184.71875 80.382812 L 184.863281 77.390625 L 187.402344 81.332031 L 187.367188 84.664062 L 188.476562 85.757812 L 188.601562 104.535156 L 191.515625 106.039062 L 191.625 97.976562 L 195.8125 101.773438 L 195.703125 106.898438 C 193.9375 107.464844 192.046875 108.023438 190.082031 108.578125 C 190.152344 116.160156 189.695312 123.488281 188.648438 130.53125 C 191.054688 130.515625 193.386719 130.296875 195.589844 129.695312 C 199.457031 121.941406 201.175781 113.554688 201.578125 104.777344 C 200.011719 105.429688 198.246094 106.070312 196.332031 106.695312 Z M 196.332031 106.695312 " fill-opacity="1" fill-rule="nonzero"/></g><path fill="#000000" d="M 202.878906 108.386719 L 203.578125 108.78125 C 202.777344 117.324219 200.34375 123.890625 197.082031 129.453125 L 196.671875 129.382812 C 200.167969 122.894531 202.246094 115.898438 202.878906 108.386719 Z M 202.878906 108.386719 " fill-opacity="1" fill-rule="nonzero"/><path fill="#000000" d="M 204.894531 109.449219 L 205.5 109.84375 C 204.726562 116.765625 202.414062 123.15625 198.65625 129.046875 L 198.332031 128.859375 C 203.582031 120.109375 204.121094 114.867188 204.894531 109.449219 Z M 204.894531 109.449219 " fill-opacity="1" fill-rule="nonzero"/><path fill="#000000" d="M 206.730469 110.34375 L 207.335938 110.6875 C 206.308594 117.28125 203.945312 123.226562 200.3125 128.558594 L 199.859375 128.449219 C 203.320312 123.226562 205.917969 117.402344 206.730469 110.34375 Z M 206.730469 110.34375 " fill-opacity="1" fill-rule="nonzero"/><path fill="#000000" d="M 208.277344 111.070312 L 208.863281 111.308594 C 207.757812 117.4375 205.375 123.046875 201.683594 128.128906 L 201.21875 128.019531 C 204.605469 123.695312 207.378906 117.101562 208.277344 111.070312 Z M 208.277344 111.070312 " fill-opacity="1" fill-rule="nonzero"/><path fill="#000000" d="M 209.554688 111.539062 L 210.007812 111.816406 C 208.839844 117.273438 206.417969 123.007812 202.925781 127.605469 L 202.675781 127.605469 C 205.949219 123.210938 208.242188 117.855469 209.554688 111.539062 Z M 209.554688 111.539062 " fill-opacity="1" fill-rule="nonzero"/><path fill="#000000" d="M 210.75 111.8125 L 211.179688 112.113281 C 209.871094 117.804688 207.511719 122.695312 204.320312 126.945312 L 203.972656 126.921875 C 207.058594 122.933594 209.296875 117.875 210.75 111.8125 Z M 210.75 111.8125 " fill-opacity="1" fill-rule="nonzero"/><g clip-path="url(#107d7dc6a5)"><path fill="#000000" d="M 205.453125 126.230469 L 206.132812 126.050781 C 209.429688 122.03125 211.605469 116.300781 213.179688 109.65625 L 210.675781 108.996094 C 211.726562 103.511719 211.769531 97.746094 210.835938 91.707031 C 213.082031 95.042969 215.320312 98.050781 217.546875 100.539062 C 217.59375 109.035156 214.996094 116.335938 210.890625 122.949219 L 211.984375 122.125 C 216.066406 115.484375 218.484375 108.300781 218.261719 100.269531 C 216.117188 97.910156 213.570312 94.582031 210.875 90.898438 C 208.53125 90.960938 206.210938 91.433594 203.914062 92.296875 C 204.414062 97.15625 204.457031 101.871094 204.039062 106.433594 C 206.90625 108.234375 209.679688 109.597656 212.304688 110.25 C 211.15625 116.238281 208.71875 121.472656 205.453125 126.230469 Z M 205.453125 126.230469 " fill-opacity="1" fill-rule="nonzero"/></g><path fill="#000000" d="M 212.691406 96.09375 L 216.699219 100.96875 L 216.699219 101.515625 L 212.691406 96.917969 Z M 212.691406 96.09375 " fill-opacity="1" fill-rule="nonzero"/><path fill="#000000" d="M 212.835938 98.996094 L 216.113281 102.605469 L 216.113281 103.152344 L 212.835938 99.714844 Z M 212.835938 98.996094 " fill-opacity="1" fill-rule="nonzero"/><path fill="#000000" d="M 212.835938 101.863281 L 214.695312 103.726562 L 214.695312 104.167969 L 212.835938 102.710938 Z M 212.835938 101.863281 " fill-opacity="1" fill-rule="nonzero"/><path fill="#000000" d="M 212.691406 104.011719 L 213.242188 104.777344 L 213.242188 105.304688 L 212.691406 104.753906 Z M 212.691406 104.011719 " fill-opacity="1" fill-rule="nonzero"/><g fill="#092635" fill-opacity="1"><g transform="translate(111.615231, 229.388452)"><g><path d="M 9.773438 0.449219 C 15.003906 0.449219 18.101562 -2.015625 18.101562 -6.164062 C 18.101562 -9.652344 15.84375 -11.695312 10.734375 -12.839844 C 8.027344 -13.441406 7.035156 -14.101562 7.035156 -15.183594 C 7.035156 -16.207031 7.9375 -16.835938 9.351562 -16.835938 C 11.035156 -16.835938 11.996094 -15.964844 11.996094 -14.371094 L 17.710938 -14.371094 C 17.710938 -18.703125 14.402344 -21.5 9.230469 -21.5 C 4.269531 -21.5 1.203125 -19.03125 1.203125 -15.0625 C 1.203125 -11.515625 3.519531 -9.320312 8.269531 -8.417969 C 10.824219 -7.90625 12.058594 -7.125 12.058594 -5.921875 C 12.058594 -4.871094 11.15625 -4.269531 9.683594 -4.269531 C 7.9375 -4.269531 6.914062 -5.203125 6.914062 -6.824219 L 1.050781 -6.824219 C 1.050781 -2.285156 4.300781 0.449219 9.773438 0.449219 Z M 9.773438 0.449219 "/></g></g></g><g fill="#092635" fill-opacity="1"><g transform="translate(130.822685, 229.388452)"><g><path d="M 2.226562 0 L 8.296875 0 L 8.296875 -5.203125 L 11.09375 -5.203125 C 16.445312 -5.203125 19.84375 -8.296875 19.84375 -13.140625 C 19.84375 -17.980469 16.445312 -21.046875 11.09375 -21.046875 L 2.226562 -21.046875 Z M 8.238281 -10.28125 L 8.238281 -15.9375 L 10.523438 -15.9375 C 12.539062 -15.9375 13.710938 -14.851562 13.710938 -13.109375 C 13.710938 -11.335938 12.539062 -10.28125 10.523438 -10.28125 Z M 8.238281 -10.28125 "/></g></g></g><g fill="#092635" fill-opacity="1"><g transform="translate(151.352721, 229.388452)"><g><path d="M 12.476562 0.449219 C 19.183594 0.449219 23.933594 -4.089844 23.933594 -10.523438 C 23.933594 -16.957031 19.183594 -21.5 12.476562 -21.5 C 5.773438 -21.5 1.023438 -16.957031 1.023438 -10.523438 C 1.023438 -4.089844 5.773438 0.449219 12.476562 0.449219 Z M 7.1875 -10.523438 C 7.1875 -13.679688 9.382812 -15.875 12.476562 -15.875 C 15.605469 -15.875 17.769531 -13.679688 17.769531 -10.523438 C 17.769531 -7.367188 15.605469 -5.171875 12.476562 -5.171875 C 9.382812 -5.171875 7.1875 -7.367188 7.1875 -10.523438 Z M 7.1875 -10.523438 "/></g></g></g><g fill="#092635" fill-opacity="1"><g transform="translate(176.33143, 229.388452)"><g><path d="M 7.246094 0 L 13.289062 0 L 13.289062 -15.425781 L 19.695312 -15.425781 L 19.695312 -21.046875 L 0.84375 -21.046875 L 0.84375 -15.425781 L 7.246094 -15.425781 Z M 7.246094 0 "/></g></g></g><g fill="#092635" fill-opacity="1"><g transform="translate(196.861466, 229.388452)"><g><path d="M 2.226562 0 L 8.296875 0 L 8.296875 -7.96875 L 10.945312 -7.96875 L 14.972656 0 L 22.007812 0 L 16.476562 -10.222656 C 17.109375 -10.976562 17.679688 -11.96875 18.160156 -13.199219 L 21.289062 -21.046875 L 14.703125 -21.046875 L 12.808594 -15.785156 C 12.175781 -13.953125 11.484375 -13.5 9.320312 -13.5 L 8.296875 -13.5 L 8.296875 -21.046875 L 2.226562 -21.046875 Z M 2.226562 0 "/></g></g></g><g fill="#092635" fill-opacity="1"><g transform="translate(219.58578, 229.388452)"><g><path d="M 0.148438 0 L 6.585938 0 L 7.726562 -2.976562 L 14.914062 -2.976562 L 16.054688 0 L 22.519531 0 L 14.34375 -21.046875 L 8.328125 -21.046875 Z M 8.988281 -7.425781 L 11.335938 -13.953125 L 13.679688 -7.425781 Z M 8.988281 -7.425781 "/></g></g></g><g fill="#092635" fill-opacity="1"><g transform="translate(242.249978, 229.388452)"><g><path d="M 2.226562 0 L 13.019531 0 C 17.289062 0 20.265625 -2.40625 20.265625 -5.863281 C 20.265625 -8.089844 19.0625 -9.890625 17.078125 -10.765625 C 18.703125 -11.695312 19.632812 -13.378906 19.632812 -15.394531 C 19.632812 -18.851562 16.867188 -21.046875 12.476562 -21.046875 L 2.226562 -21.046875 Z M 8.179688 -4.511719 L 8.179688 -8.449219 L 11.847656 -8.449219 C 13.289062 -8.449219 14.101562 -7.726562 14.101562 -6.496094 C 14.101562 -5.230469 13.289062 -4.511719 11.847656 -4.511719 Z M 8.179688 -12.777344 L 8.179688 -16.566406 L 11.335938 -16.566406 C 12.75 -16.566406 13.53125 -15.875 13.53125 -14.671875 C 13.53125 -13.441406 12.75 -12.777344 11.335938 -12.777344 Z M 8.179688 -12.777344 "/></g></g></g></svg>