<svg width="37" height="43" viewBox="0 0 37 43" fill="none" xmlns="http://www.w3.org/2000/svg">
<g clip-path="url(#clip0_197_48)">
<path d="M18.5081 11.6451C13.2554 11.6451 9.0186 15.8819 9.0186 21.1346C9.0186 26.3873 13.2554 30.6241 18.5081 30.6241C23.7608 30.6241 27.9976 26.3873 27.9976 21.1346C27.9976 15.8819 23.7608 11.6451 18.5081 11.6451ZM18.5081 27.304C15.1137 27.304 12.3387 24.5373 12.3387 21.1346C12.3387 17.7319 15.1054 14.9652 18.5081 14.9652C21.9108 14.9652 24.6775 17.7319 24.6775 21.1346C24.6775 24.5373 21.9025 27.304 18.5081 27.304ZM30.5992 11.2569C30.5992 12.4875 29.6081 13.4703 28.3858 13.4703C27.1552 13.4703 26.1724 12.4793 26.1724 11.2569C26.1724 10.0346 27.1635 9.04354 28.3858 9.04354C29.6081 9.04354 30.5992 10.0346 30.5992 11.2569ZM36.8842 13.5034C36.7438 10.5384 36.0666 7.91207 33.8945 5.74823C31.7307 3.58439 29.1043 2.90716 26.1394 2.7585C23.0836 2.58506 13.9244 2.58506 10.8686 2.7585C7.9119 2.8989 5.28556 3.57613 3.11346 5.73997C0.941365 7.90381 0.272391 10.5301 0.12373 13.4951C-0.049707 16.5509 -0.049707 25.7101 0.12373 28.7659C0.264132 31.7308 0.941365 34.3572 3.11346 36.521C5.28556 38.6848 7.90364 39.3621 10.8686 39.5107C13.9244 39.6842 23.0836 39.6842 26.1394 39.5107C29.1043 39.3703 31.7307 38.6931 33.8945 36.521C36.0583 34.3572 36.7356 31.7308 36.8842 28.7659C37.0577 25.7101 37.0577 16.5592 36.8842 13.5034ZM32.9365 32.0447C32.2923 33.6634 31.0452 34.9105 29.4182 35.563C26.9818 36.5293 21.2005 36.3063 18.5081 36.3063C15.8157 36.3063 10.0262 36.521 7.59806 35.563C5.97931 34.9188 4.73221 33.6717 4.07976 32.0447C3.11346 29.6083 3.33645 23.827 3.33645 21.1346C3.33645 18.4422 3.12172 12.6527 4.07976 10.2246C4.72395 8.60582 5.97105 7.35872 7.59806 6.70626C10.0344 5.73997 15.8157 5.96296 18.5081 5.96296C21.2005 5.96296 26.99 5.74823 29.4182 6.70626C31.0369 7.35046 32.284 8.59756 32.9365 10.2246C33.9028 12.661 33.6798 18.4422 33.6798 21.1346C33.6798 23.827 33.9028 29.6165 32.9365 32.0447Z" fill="#092635"/>
</g>
<defs>
<clipPath id="clip0_197_48">
<rect width="37" height="42.2857" fill="white"/>
</clipPath>
</defs>
</svg>
