<svg xmlns="http://www.w3.org/2000/svg" xmlns:xlink="http://www.w3.org/1999/xlink" width="500" zoomAndPan="magnify" viewBox="0 0 375 374.999991" height="500" preserveAspectRatio="xMidYMid meet" version="1.0"><defs><g/><clipPath id="9f65e4c807"><path d="M 120.820312 37.5 L 254.320312 37.5 L 254.320312 201.75 L 120.820312 201.75 Z M 120.820312 37.5 " clip-rule="nonzero"/></clipPath><clipPath id="53655b3f5f"><path d="M 146.875 63.085938 L 228.125 63.085938 L 228.125 144.335938 L 146.875 144.335938 Z M 146.875 63.085938 " clip-rule="nonzero"/></clipPath><clipPath id="aef32e634d"><path d="M 187.5 63.085938 C 165.0625 63.085938 146.875 81.273438 146.875 103.710938 C 146.875 126.148438 165.0625 144.335938 187.5 144.335938 C 209.9375 144.335938 228.125 126.148438 228.125 103.710938 C 228.125 81.273438 209.9375 63.085938 187.5 63.085938 Z M 187.5 63.085938 " clip-rule="nonzero"/></clipPath><clipPath id="f403424e5b"><path d="M 103.050781 220 L 271.800781 220 L 271.800781 248.144531 L 103.050781 248.144531 Z M 103.050781 220 " clip-rule="nonzero"/></clipPath><clipPath id="a7f74de1c9"><path d="M 103.050781 201.644531 L 242 201.644531 L 242 228 L 103.050781 228 Z M 103.050781 201.644531 " clip-rule="nonzero"/></clipPath><clipPath id="445ef61f91"><path d="M 133 212 L 271.800781 212 L 271.800781 241 L 133 241 Z M 133 212 " clip-rule="nonzero"/></clipPath><clipPath id="731f7f07e8"><path d="M 245 201.644531 L 268 201.644531 L 268 211 L 245 211 Z M 245 201.644531 " clip-rule="nonzero"/></clipPath><clipPath id="95c5e4eb73"><path d="M 156.234375 88 L 184 88 L 184 130.625 L 156.234375 130.625 Z M 156.234375 88 " clip-rule="nonzero"/></clipPath><clipPath id="a77237fa57"><path d="M 182 104 L 185 104 L 185 130.625 L 182 130.625 Z M 182 104 " clip-rule="nonzero"/></clipPath><clipPath id="fc1e9e8d6c"><path d="M 184 105 L 186 105 L 186 130.625 L 184 130.625 Z M 184 105 " clip-rule="nonzero"/></clipPath><clipPath id="fa3e432285"><path d="M 186 107 L 188 107 L 188 130.625 L 186 130.625 Z M 186 107 " clip-rule="nonzero"/></clipPath><clipPath id="1891e4e404"><path d="M 187 108 L 189 108 L 189 130.625 L 187 130.625 Z M 187 108 " clip-rule="nonzero"/></clipPath><clipPath id="fd525c4239"><path d="M 181 76.625 L 202 76.625 L 202 130.625 L 181 130.625 Z M 181 76.625 " clip-rule="nonzero"/></clipPath><clipPath id="c109589f83"><path d="M 203 90 L 218.484375 90 L 218.484375 127 L 203 127 Z M 203 90 " clip-rule="nonzero"/></clipPath></defs><path fill="#b9c5f0" d="M 234.273438 147.59375 L 196.265625 189.789062 C 191.917969 195.777344 183.183594 195.8125 178.792969 189.855469 L 139.199219 145.925781 C 129.445312 135.226562 124.1875 118.191406 124.1875 102.554688 C 124.1875 69.324219 154.410156 40.835938 187.570312 40.835938 C 220.734375 40.835938 250.953125 69.324219 250.953125 102.554688 C 250.953125 119.554688 245.585938 136.652344 234.273438 147.59375 Z M 234.273438 147.59375 " fill-opacity="1" fill-rule="evenodd"/><path fill="#d5f3ff" d="M 224.707031 142.953125 L 187.695312 183.3125 C 183.464844 189.042969 174.957031 189.074219 170.683594 183.375 L 134.195312 140.921875 C 124.699219 130.6875 124.1875 114.171875 124.1875 99.21875 C 124.1875 72.53125 155.878906 40.835938 179.230469 40.835938 C 211.523438 40.835938 240.945312 68.085938 240.945312 99.871094 C 240.945312 116.132812 232.605469 134.25 224.707031 142.953125 Z M 224.707031 142.953125 " fill-opacity="1" fill-rule="evenodd"/><path fill="#87d1ee" d="M 227.929688 104.222656 C 227.929688 126.335938 210.007812 144.257812 187.898438 144.257812 C 165.789062 144.257812 147.867188 126.335938 147.867188 104.222656 C 147.867188 82.113281 165.789062 64.191406 187.898438 64.191406 C 210.007812 64.191406 227.929688 82.113281 227.929688 104.222656 Z M 227.929688 104.222656 " fill-opacity="1" fill-rule="nonzero"/><path fill="#9ed44a" d="M 174.554688 77.535156 C 174.554688 73.53125 168.992188 70.304688 166.214844 69.195312 C 163.988281 70.863281 158.539062 75.867188 154.539062 82.539062 C 146.53125 95.882812 146.199219 104.222656 149.535156 115.902344 C 152.125 124.972656 162.320312 135.363281 167.882812 139.253906 C 171.21875 134.804688 178.222656 124.574219 179.558594 119.238281 C 181.226562 112.566406 179.558594 109.226562 174.554688 109.226562 C 169.550781 109.226562 172.886719 105.890625 171.21875 100.886719 C 169.550781 95.882812 162.878906 97.550781 162.878906 94.214844 C 162.878906 90.878906 174.554688 82.539062 174.554688 77.535156 Z M 174.554688 77.535156 " fill-opacity="1" fill-rule="nonzero"/><path fill="#9ed44a" d="M 197.90625 87.542969 C 197.90625 84.875 210.136719 79.757812 216.253906 77.535156 C 219.03125 80.871094 225.261719 90.210938 227.929688 100.886719 C 230.597656 111.5625 222.367188 125.355469 217.921875 130.914062 C 216.253906 124.796875 212.582031 111.5625 211.25 107.558594 C 209.582031 102.554688 201.242188 102.554688 199.574219 100.886719 C 197.90625 99.21875 197.90625 90.878906 197.90625 87.542969 Z M 197.90625 87.542969 " fill-opacity="1" fill-rule="nonzero"/><g clip-path="url(#9f65e4c807)"><path fill="#000000" d="M 180.054688 187.363281 C 184.039062 191.902344 191.105469 191.902344 195.089844 187.363281 L 232.378906 144.925781 L 232.390625 144.917969 C 241.863281 134.222656 247.617188 120.125 247.617188 104.660156 C 247.617188 71.230469 220.714844 44.171875 187.570312 44.171875 C 154.429688 44.171875 127.523438 71.230469 127.523438 104.660156 C 127.523438 119.992188 133.183594 133.984375 142.515625 144.644531 Z M 200.101562 191.769531 C 193.457031 199.328125 181.683594 199.328125 175.042969 191.769531 L 137.496094 149.039062 C 127.136719 137.207031 120.851562 121.664062 120.851562 104.660156 C 120.851562 67.589844 150.703125 37.5 187.570312 37.5 C 224.441406 37.5 254.292969 67.589844 254.292969 104.660156 C 254.292969 121.808594 247.902344 137.464844 237.386719 149.335938 L 237.382812 149.339844 Z M 166.503906 74.171875 C 157.054688 80.808594 150.875 91.796875 150.875 104.222656 C 150.875 116.667969 157.070312 127.667969 166.542969 134.304688 L 171.316406 125.949219 L 176.378906 116.664062 C 177.386719 114.816406 176.050781 112.566406 173.945312 112.566406 C 170.417969 112.566406 167.554688 109.703125 167.554688 106.175781 L 167.554688 103.597656 C 167.554688 102.101562 166.34375 100.886719 164.84375 100.886719 C 159.179688 100.886719 156.34375 94.039062 160.347656 90.03125 L 169.449219 80.929688 C 170.9375 79.441406 170.691406 76.964844 168.941406 75.796875 Z M 173.035156 70.519531 C 177.492188 68.59375 182.40625 67.527344 187.570312 67.527344 C 196.734375 67.527344 205.117188 70.886719 211.546875 76.441406 L 200.402344 81.085938 C 196.671875 82.636719 194.242188 86.28125 194.242188 90.324219 L 194.242188 95.097656 C 194.242188 98.886719 196.386719 102.351562 199.777344 104.046875 L 206.6875 107.503906 C 207.558594 107.9375 208.195312 108.734375 208.429688 109.679688 L 213.546875 130.144531 C 206.90625 136.804688 197.71875 140.921875 187.570312 140.921875 C 182.136719 140.921875 176.972656 139.738281 172.332031 137.617188 L 177.140625 129.203125 L 182.238281 119.859375 C 185.625 113.648438 181.234375 106.09375 174.226562 105.894531 L 174.226562 103.597656 C 174.226562 98.660156 170.414062 94.613281 165.574219 94.242188 L 174.167969 85.648438 C 178.519531 81.296875 177.929688 74.125 173.035156 70.519531 Z M 202.96875 87.242188 L 216.476562 81.613281 C 221.359375 87.847656 224.265625 95.695312 224.265625 104.222656 C 224.265625 111.3125 222.257812 117.933594 218.773438 123.546875 L 214.902344 108.058594 C 214.195312 105.226562 212.285156 102.84375 209.671875 101.535156 L 202.757812 98.082031 C 201.628906 97.515625 200.914062 96.359375 200.914062 95.097656 L 200.914062 90.324219 C 200.914062 88.976562 201.726562 87.761719 202.96875 87.242188 Z M 144.203125 104.222656 C 144.203125 80.269531 163.621094 60.851562 187.570312 60.851562 C 211.523438 60.851562 230.9375 80.269531 230.9375 104.222656 C 230.9375 128.175781 211.523438 147.59375 187.570312 147.59375 C 163.621094 147.59375 144.203125 128.175781 144.203125 104.222656 Z M 150.875 204.308594 C 143.507812 204.308594 137.53125 210.285156 137.53125 217.65625 C 137.53125 225.023438 143.507812 231 150.875 231 L 224.265625 231 C 231.636719 231 237.609375 225.023438 237.609375 217.65625 C 237.609375 210.285156 231.636719 204.308594 224.265625 204.308594 Z M 144.203125 217.65625 C 144.203125 213.96875 147.191406 210.984375 150.875 210.984375 L 224.265625 210.984375 C 227.953125 210.984375 230.9375 213.96875 230.9375 217.65625 C 230.9375 221.339844 227.953125 224.328125 224.265625 224.328125 L 150.875 224.328125 C 147.191406 224.328125 144.203125 221.339844 144.203125 217.65625 Z M 144.203125 217.65625 " fill-opacity="1" fill-rule="evenodd"/></g><g clip-path="url(#53655b3f5f)"><g clip-path="url(#aef32e634d)"><path fill="#25c19b" d="M 146.875 63.085938 L 228.125 63.085938 L 228.125 144.335938 L 146.875 144.335938 Z M 146.875 63.085938 " fill-opacity="1" fill-rule="nonzero"/></g></g><path fill="#2dad9d" d="M 270.507812 221.171875 L 270.507812 228.605469 C 270.507812 238.8125 262.207031 247.089844 251.96875 247.089844 L 122.863281 247.089844 C 112.625 247.089844 104.324219 238.8125 104.324219 228.605469 L 104.324219 221.171875 Z M 270.507812 221.171875 " fill-opacity="1" fill-rule="nonzero"/><g clip-path="url(#f403424e5b)"><path fill="#000000" d="M 251.96875 248.132812 L 122.863281 248.132812 C 112.066406 248.132812 103.28125 239.371094 103.28125 228.605469 L 103.28125 221.171875 C 103.28125 220.59375 103.746094 220.128906 104.324219 220.128906 C 104.902344 220.128906 105.367188 220.59375 105.367188 221.171875 L 105.367188 228.605469 C 105.367188 238.222656 113.214844 246.050781 122.863281 246.050781 L 251.96875 246.050781 C 261.617188 246.050781 269.464844 238.222656 269.464844 228.605469 L 269.464844 221.171875 C 269.464844 220.59375 269.929688 220.128906 270.507812 220.128906 C 271.085938 220.128906 271.550781 220.59375 271.550781 221.171875 L 271.550781 228.605469 C 271.550781 239.371094 262.765625 248.132812 251.96875 248.132812 Z M 251.96875 248.132812 " fill-opacity="1" fill-rule="nonzero"/></g><path fill="#ffffff" d="M 122.863281 239.65625 C 112.625 239.65625 104.324219 231.378906 104.324219 221.171875 C 104.324219 210.960938 112.625 202.683594 122.863281 202.683594 L 251.96875 202.683594 C 262.207031 202.683594 270.507812 210.960938 270.507812 221.171875 C 270.507812 231.378906 262.207031 239.65625 251.96875 239.65625 Z M 122.863281 239.65625 " fill-opacity="1" fill-rule="nonzero"/><g clip-path="url(#a7f74de1c9)"><path fill="#000000" d="M 105.238281 227.960938 C 104.800781 227.960938 104.390625 227.683594 104.246094 227.242188 C 103.605469 225.285156 103.28125 223.246094 103.28125 221.171875 C 103.28125 210.40625 112.066406 201.644531 122.863281 201.644531 L 240.753906 201.644531 C 241.332031 201.644531 241.796875 202.109375 241.796875 202.683594 C 241.796875 203.261719 241.332031 203.726562 240.753906 203.726562 L 122.863281 203.726562 C 113.214844 203.726562 105.367188 211.550781 105.367188 221.171875 C 105.367188 223.027344 105.65625 224.851562 106.230469 226.59375 C 106.40625 227.140625 106.109375 227.726562 105.5625 227.90625 C 105.453125 227.941406 105.347656 227.957031 105.238281 227.957031 Z M 105.238281 227.960938 " fill-opacity="1" fill-rule="nonzero"/></g><path fill="#000000" d="M 127.269531 240.695312 L 122.863281 240.695312 C 117.214844 240.695312 111.84375 238.261719 108.117188 234.023438 C 107.738281 233.589844 107.785156 232.933594 108.214844 232.554688 C 108.648438 232.175781 109.308594 232.21875 109.6875 232.652344 C 113.011719 236.441406 117.8125 238.617188 122.859375 238.617188 L 127.265625 238.617188 C 127.84375 238.617188 128.308594 239.082031 128.308594 239.65625 C 128.308594 240.230469 127.84375 240.695312 127.265625 240.695312 Z M 127.269531 240.695312 " fill-opacity="1" fill-rule="nonzero"/><g clip-path="url(#445ef61f91)"><path fill="#000000" d="M 251.96875 240.695312 L 134.488281 240.695312 C 133.914062 240.695312 133.445312 240.230469 133.445312 239.65625 C 133.445312 239.082031 133.914062 238.617188 134.488281 238.617188 L 251.964844 238.617188 C 261.613281 238.617188 269.460938 230.789062 269.460938 221.171875 C 269.460938 218.808594 268.996094 216.519531 268.082031 214.367188 C 267.855469 213.835938 268.105469 213.226562 268.632812 213.003906 C 269.164062 212.78125 269.777344 213.027344 270 213.554688 C 271.027344 215.96875 271.546875 218.53125 271.546875 221.171875 C 271.546875 231.9375 262.765625 240.695312 251.964844 240.695312 Z M 251.96875 240.695312 " fill-opacity="1" fill-rule="nonzero"/></g><g clip-path="url(#731f7f07e8)"><path fill="#000000" d="M 266.300781 210.484375 C 266 210.484375 265.699219 210.355469 265.492188 210.101562 C 262.15625 206.050781 257.222656 203.722656 251.964844 203.722656 L 246.605469 203.722656 C 246.027344 203.722656 245.5625 203.257812 245.5625 202.683594 C 245.5625 202.105469 246.027344 201.640625 246.605469 201.640625 L 251.964844 201.640625 C 257.851562 201.640625 263.367188 204.242188 267.105469 208.78125 C 267.46875 209.226562 267.40625 209.878906 266.960938 210.246094 C 266.765625 210.40625 266.535156 210.480469 266.300781 210.480469 Z M 266.300781 210.484375 " fill-opacity="1" fill-rule="nonzero"/></g><path fill="#000000" d="M 167.742188 111.65625 L 171.726562 113.820312 L 171.640625 114.476562 L 167.742188 112.457031 Z M 167.742188 111.65625 " fill-opacity="1" fill-rule="nonzero"/><path fill="#000000" d="M 168.125 113.605469 L 170.984375 115.410156 L 170.984375 116.101562 L 168.125 114.476562 Z M 168.125 113.605469 " fill-opacity="1" fill-rule="nonzero"/><g clip-path="url(#95c5e4eb73)"><path fill="#000000" d="M 167.480469 110.441406 L 173.242188 113.195312 C 174.175781 119.425781 175.890625 124.949219 178.464844 129.695312 C 180.074219 130.144531 181.714844 130.390625 183.378906 130.410156 C 180.992188 120.546875 180.453125 110.449219 180.5625 100.335938 L 179.65625 100.789062 L 179.992188 88.867188 L 175.457031 91.59375 L 175.21875 103.011719 L 172.453125 104.421875 C 172.523438 106.324219 172.648438 108.175781 172.835938 109.976562 L 165.703125 106.546875 C 162.0625 107.773438 158.675781 107.859375 156.234375 107.023438 C 157.234375 112.253906 158.652344 116.363281 160.414062 119.5625 C 161.320312 121.203125 162.597656 122.609375 164.132812 123.683594 C 166.964844 125.667969 169.980469 127.308594 173.265625 128.429688 C 169.070312 122.035156 166.53125 115.015625 165.773438 107.3125 L 172.90625 110.703125 L 172.90625 110.628906 C 172.980469 111.28125 173.0625 111.929688 173.152344 112.570312 L 167.480469 109.640625 Z M 167.480469 110.441406 " fill-opacity="1" fill-rule="nonzero"/></g><g clip-path="url(#a77237fa57)"><path fill="#000000" d="M 182.160156 104.921875 L 182.851562 105.375 C 183.132812 113.515625 183.726562 121.894531 184.617188 130.503906 L 184.308594 130.503906 C 183.285156 123.015625 182.625 114.304688 182.160156 104.921875 Z M 182.160156 104.921875 " fill-opacity="1" fill-rule="nonzero"/></g><g clip-path="url(#fc1e9e8d6c)"><path fill="#000000" d="M 184.332031 105.949219 L 185.144531 106.523438 C 185.300781 115.417969 185.523438 123.679688 185.90625 130.53125 L 185.621094 130.503906 C 185.175781 123.636719 184.75 115.113281 184.332031 105.949219 Z M 184.332031 105.949219 " fill-opacity="1" fill-rule="nonzero"/></g><g clip-path="url(#fa3e432285)"><path fill="#000000" d="M 186.257812 107.09375 L 187.152344 107.542969 L 187.0625 130.601562 L 186.757812 130.601562 C 186.75 122.011719 186.609375 114.050781 186.257812 107.09375 Z M 186.257812 107.09375 " fill-opacity="1" fill-rule="nonzero"/></g><g clip-path="url(#1891e4e404)"><path fill="#000000" d="M 188.046875 108.007812 L 188.777344 108.582031 L 188.011719 130.617188 L 187.632812 130.617188 C 188.042969 123.75 188.136719 116.109375 188.046875 108.007812 Z M 188.046875 108.007812 " fill-opacity="1" fill-rule="nonzero"/></g><g clip-path="url(#fd525c4239)"><path fill="#000000" d="M 196.332031 106.695312 L 196.542969 101.378906 L 191.554688 96.792969 L 189.28125 98.011719 L 189.121094 85.507812 L 187.761719 84.039062 L 187.652344 80.507812 L 185.058594 76.636719 L 183.019531 78.105469 L 182.734375 82.03125 L 181.695312 82.785156 L 181.230469 89.429688 L 183.269531 91.0625 L 183.269531 101.757812 L 184.917969 102.761719 L 185.257812 80.078125 L 185.003906 80.402344 L 184.71875 80.382812 L 184.863281 77.390625 L 187.402344 81.332031 L 187.367188 84.664062 L 188.476562 85.757812 L 188.601562 104.535156 L 191.515625 106.039062 L 191.625 97.976562 L 195.8125 101.773438 L 195.703125 106.898438 C 193.9375 107.464844 192.046875 108.023438 190.082031 108.578125 C 190.152344 116.160156 189.695312 123.488281 188.648438 130.53125 C 191.054688 130.515625 193.386719 130.296875 195.589844 129.695312 C 199.457031 121.941406 201.175781 113.554688 201.578125 104.777344 C 200.011719 105.429688 198.246094 106.070312 196.332031 106.695312 Z M 196.332031 106.695312 " fill-opacity="1" fill-rule="nonzero"/></g><path fill="#000000" d="M 202.878906 108.386719 L 203.578125 108.78125 C 202.777344 117.324219 200.34375 123.890625 197.082031 129.453125 L 196.671875 129.382812 C 200.167969 122.894531 202.246094 115.898438 202.878906 108.386719 Z M 202.878906 108.386719 " fill-opacity="1" fill-rule="nonzero"/><path fill="#000000" d="M 204.894531 109.449219 L 205.5 109.84375 C 204.726562 116.765625 202.414062 123.15625 198.65625 129.046875 L 198.332031 128.859375 C 203.582031 120.109375 204.121094 114.867188 204.894531 109.449219 Z M 204.894531 109.449219 " fill-opacity="1" fill-rule="nonzero"/><path fill="#000000" d="M 206.730469 110.34375 L 207.335938 110.6875 C 206.308594 117.28125 203.945312 123.226562 200.3125 128.558594 L 199.859375 128.449219 C 203.320312 123.226562 205.917969 117.402344 206.730469 110.34375 Z M 206.730469 110.34375 " fill-opacity="1" fill-rule="nonzero"/><path fill="#000000" d="M 208.277344 111.070312 L 208.863281 111.308594 C 207.757812 117.4375 205.375 123.046875 201.683594 128.128906 L 201.21875 128.019531 C 204.605469 123.695312 207.378906 117.101562 208.277344 111.070312 Z M 208.277344 111.070312 " fill-opacity="1" fill-rule="nonzero"/><path fill="#000000" d="M 209.554688 111.539062 L 210.007812 111.816406 C 208.839844 117.273438 206.417969 123.007812 202.925781 127.605469 L 202.675781 127.605469 C 205.949219 123.210938 208.242188 117.855469 209.554688 111.539062 Z M 209.554688 111.539062 " fill-opacity="1" fill-rule="nonzero"/><path fill="#000000" d="M 210.75 111.8125 L 211.179688 112.113281 C 209.871094 117.804688 207.511719 122.695312 204.320312 126.945312 L 203.972656 126.921875 C 207.058594 122.933594 209.296875 117.875 210.75 111.8125 Z M 210.75 111.8125 " fill-opacity="1" fill-rule="nonzero"/><g clip-path="url(#c109589f83)"><path fill="#000000" d="M 205.453125 126.230469 L 206.132812 126.050781 C 209.429688 122.03125 211.605469 116.300781 213.179688 109.65625 L 210.675781 108.996094 C 211.726562 103.511719 211.769531 97.746094 210.835938 91.707031 C 213.082031 95.042969 215.320312 98.050781 217.546875 100.539062 C 217.59375 109.035156 214.996094 116.335938 210.890625 122.949219 L 211.984375 122.125 C 216.066406 115.484375 218.484375 108.300781 218.261719 100.269531 C 216.117188 97.910156 213.570312 94.582031 210.875 90.898438 C 208.53125 90.960938 206.210938 91.433594 203.914062 92.296875 C 204.414062 97.15625 204.457031 101.871094 204.039062 106.433594 C 206.90625 108.234375 209.679688 109.597656 212.304688 110.25 C 211.15625 116.238281 208.71875 121.472656 205.453125 126.230469 Z M 205.453125 126.230469 " fill-opacity="1" fill-rule="nonzero"/></g><path fill="#000000" d="M 212.691406 96.09375 L 216.699219 100.96875 L 216.699219 101.515625 L 212.691406 96.917969 Z M 212.691406 96.09375 " fill-opacity="1" fill-rule="nonzero"/><path fill="#000000" d="M 212.835938 98.996094 L 216.113281 102.605469 L 216.113281 103.152344 L 212.835938 99.714844 Z M 212.835938 98.996094 " fill-opacity="1" fill-rule="nonzero"/><path fill="#000000" d="M 212.835938 101.863281 L 214.695312 103.726562 L 214.695312 104.167969 L 212.835938 102.710938 Z M 212.835938 101.863281 " fill-opacity="1" fill-rule="nonzero"/><path fill="#000000" d="M 212.691406 104.011719 L 213.242188 104.777344 L 213.242188 105.304688 L 212.691406 104.753906 Z M 212.691406 104.011719 " fill-opacity="1" fill-rule="nonzero"/><g fill="#092635" fill-opacity="1"><g transform="translate(111.615231, 229.388452)"><g><path d="M 9.773438 0.449219 C 15.003906 0.449219 18.101562 -2.015625 18.101562 -6.164062 C 18.101562 -9.652344 15.84375 -11.695312 10.734375 -12.839844 C 8.027344 -13.441406 7.035156 -14.101562 7.035156 -15.183594 C 7.035156 -16.207031 7.9375 -16.835938 9.351562 -16.835938 C 11.035156 -16.835938 11.996094 -15.964844 11.996094 -14.371094 L 17.710938 -14.371094 C 17.710938 -18.703125 14.402344 -21.5 9.230469 -21.5 C 4.269531 -21.5 1.203125 -19.03125 1.203125 -15.0625 C 1.203125 -11.515625 3.519531 -9.320312 8.269531 -8.417969 C 10.824219 -7.90625 12.058594 -7.125 12.058594 -5.921875 C 12.058594 -4.871094 11.15625 -4.269531 9.683594 -4.269531 C 7.9375 -4.269531 6.914062 -5.203125 6.914062 -6.824219 L 1.050781 -6.824219 C 1.050781 -2.285156 4.300781 0.449219 9.773438 0.449219 Z M 9.773438 0.449219 "/></g></g></g><g fill="#092635" fill-opacity="1"><g transform="translate(130.822685, 229.388452)"><g><path d="M 2.226562 0 L 8.296875 0 L 8.296875 -5.203125 L 11.09375 -5.203125 C 16.445312 -5.203125 19.84375 -8.296875 19.84375 -13.140625 C 19.84375 -17.980469 16.445312 -21.046875 11.09375 -21.046875 L 2.226562 -21.046875 Z M 8.238281 -10.28125 L 8.238281 -15.9375 L 10.523438 -15.9375 C 12.539062 -15.9375 13.710938 -14.851562 13.710938 -13.109375 C 13.710938 -11.335938 12.539062 -10.28125 10.523438 -10.28125 Z M 8.238281 -10.28125 "/></g></g></g><g fill="#092635" fill-opacity="1"><g transform="translate(151.352721, 229.388452)"><g><path d="M 12.476562 0.449219 C 19.183594 0.449219 23.933594 -4.089844 23.933594 -10.523438 C 23.933594 -16.957031 19.183594 -21.5 12.476562 -21.5 C 5.773438 -21.5 1.023438 -16.957031 1.023438 -10.523438 C 1.023438 -4.089844 5.773438 0.449219 12.476562 0.449219 Z M 7.1875 -10.523438 C 7.1875 -13.679688 9.382812 -15.875 12.476562 -15.875 C 15.605469 -15.875 17.769531 -13.679688 17.769531 -10.523438 C 17.769531 -7.367188 15.605469 -5.171875 12.476562 -5.171875 C 9.382812 -5.171875 7.1875 -7.367188 7.1875 -10.523438 Z M 7.1875 -10.523438 "/></g></g></g><g fill="#092635" fill-opacity="1"><g transform="translate(176.33143, 229.388452)"><g><path d="M 7.246094 0 L 13.289062 0 L 13.289062 -15.425781 L 19.695312 -15.425781 L 19.695312 -21.046875 L 0.84375 -21.046875 L 0.84375 -15.425781 L 7.246094 -15.425781 Z M 7.246094 0 "/></g></g></g><g fill="#092635" fill-opacity="1"><g transform="translate(196.861466, 229.388452)"><g><path d="M 2.226562 0 L 8.296875 0 L 8.296875 -7.96875 L 10.945312 -7.96875 L 14.972656 0 L 22.007812 0 L 16.476562 -10.222656 C 17.109375 -10.976562 17.679688 -11.96875 18.160156 -13.199219 L 21.289062 -21.046875 L 14.703125 -21.046875 L 12.808594 -15.785156 C 12.175781 -13.953125 11.484375 -13.5 9.320312 -13.5 L 8.296875 -13.5 L 8.296875 -21.046875 L 2.226562 -21.046875 Z M 2.226562 0 "/></g></g></g><g fill="#092635" fill-opacity="1"><g transform="translate(219.58578, 229.388452)"><g><path d="M 0.148438 0 L 6.585938 0 L 7.726562 -2.976562 L 14.914062 -2.976562 L 16.054688 0 L 22.519531 0 L 14.34375 -21.046875 L 8.328125 -21.046875 Z M 8.988281 -7.425781 L 11.335938 -13.953125 L 13.679688 -7.425781 Z M 8.988281 -7.425781 "/></g></g></g><g fill="#092635" fill-opacity="1"><g transform="translate(242.249978, 229.388452)"><g><path d="M 2.226562 0 L 13.019531 0 C 17.289062 0 20.265625 -2.40625 20.265625 -5.863281 C 20.265625 -8.089844 19.0625 -9.890625 17.078125 -10.765625 C 18.703125 -11.695312 19.632812 -13.378906 19.632812 -15.394531 C 19.632812 -18.851562 16.867188 -21.046875 12.476562 -21.046875 L 2.226562 -21.046875 Z M 8.179688 -4.511719 L 8.179688 -8.449219 L 11.847656 -8.449219 C 13.289062 -8.449219 14.101562 -7.726562 14.101562 -6.496094 C 14.101562 -5.230469 13.289062 -4.511719 11.847656 -4.511719 Z M 8.179688 -12.777344 L 8.179688 -16.566406 L 11.335938 -16.566406 C 12.75 -16.566406 13.53125 -15.875 13.53125 -14.671875 C 13.53125 -13.441406 12.75 -12.777344 11.335938 -12.777344 Z M 8.179688 -12.777344 "/></g></g></g></svg>