<svg width="45" height="52" viewBox="0 0 45 52" fill="none" xmlns="http://www.w3.org/2000/svg">
<g clip-path="url(#clip0_197_35)">
<path d="M41.7857 0C40.1786 0 28.9286 3.21429 28.9286 17.6786V28.9286C28.9286 32.4743 31.8114 35.3571 35.3571 35.3571H38.5714V48.2143C38.5714 49.9922 40.0078 51.4286 41.7857 51.4286C43.5636 51.4286 45 49.9922 45 48.2143V35.3571V24.1071V3.21429C45 1.43638 43.5636 0 41.7857 0ZM6.42857 1.60714C6.42857 0.783482 5.81585 0.100446 4.99219 0.0100446C4.16853 -0.0803571 3.43527 0.462054 3.25446 1.25558L0.210937 14.9464C0.0703125 15.5792 0 16.2221 0 16.865C0 21.4754 3.52567 25.2623 8.03571 25.6741V48.2143C8.03571 49.9922 9.4721 51.4286 11.25 51.4286C13.0279 51.4286 14.4643 49.9922 14.4643 48.2143V25.6741C18.9743 25.2623 22.5 21.4754 22.5 16.865C22.5 16.2221 22.4297 15.5792 22.2891 14.9464L19.2455 1.25558C19.0647 0.452009 18.3114 -0.0803571 17.4978 0.0100446C16.6842 0.100446 16.0714 0.783482 16.0714 1.60714V15.0871C16.0714 15.6295 15.6295 16.0714 15.0871 16.0714C14.5748 16.0714 14.1529 15.6797 14.1027 15.1674L12.8471 1.46652C12.7768 0.632813 12.0837 0 11.25 0C10.4163 0 9.72321 0.632813 9.6529 1.46652L8.40737 15.1674C8.35714 15.6797 7.93527 16.0714 7.42299 16.0714C6.88058 16.0714 6.43862 15.6295 6.43862 15.0871V1.60714H6.42857ZM11.2801 16.875H11.25H11.2199L11.25 16.8047L11.2801 16.875Z" fill="#F4F8FF"/>
</g>
<defs>
<clipPath id="clip0_197_35">
<rect width="45" height="51.4286" fill="white"/>
</clipPath>
</defs>
</svg>
