<svg width="56" height="56" viewBox="0 0 56 56" fill="none" xmlns="http://www.w3.org/2000/svg">
<g clip-path="url(#clip0_197_33)">
<path d="M20.7515 6.14951C20.8696 5.95233 20.9478 5.73381 20.9814 5.50644C21.0151 5.27907 21.0037 5.04729 20.9478 4.82433C20.8919 4.60138 20.7926 4.39162 20.6556 4.20703C20.5187 4.02244 20.3467 3.86663 20.1495 3.74851C19.9523 3.63039 19.7338 3.55226 19.5064 3.51858C19.2791 3.48491 19.0473 3.49635 18.8243 3.55225C18.6014 3.60815 18.3916 3.70741 18.207 3.84438C18.0224 3.98135 17.8666 4.15333 17.7485 4.35051L7.7595 21H1.75C1.28587 21 0.840752 21.1844 0.512563 21.5126C0.184374 21.8408 0 22.2859 0 22.75L0 26.25C0 26.7141 0.184374 27.1593 0.512563 27.4874C0.840752 27.8156 1.28587 28 1.75 28H3.9305L10.3845 50.596C10.5415 51.1456 10.8736 51.6289 11.3303 51.9726C11.787 52.3162 12.3434 52.5014 12.915 52.5H43.092C43.663 52.5007 44.2186 52.3151 44.6746 51.9715C45.1306 51.6279 45.4622 51.145 45.619 50.596L52.0695 28H54.25C54.7141 28 55.1592 27.8156 55.4874 27.4874C55.8156 27.1593 56 26.7141 56 26.25V22.75C56 22.2859 55.8156 21.8408 55.4874 21.5126C55.1592 21.1844 54.7141 21 54.25 21H48.2405L38.255 4.35051C38.1369 4.15333 37.9811 3.98135 37.7965 3.84438C37.6119 3.70741 37.4021 3.60815 37.1792 3.55225C36.9562 3.49635 36.7244 3.48491 36.4971 3.51858C36.2697 3.55226 36.0512 3.63039 35.854 3.74851C35.6568 3.86663 35.4848 4.02244 35.3479 4.20703C35.2109 4.39162 35.1116 4.60138 35.0557 4.82433C34.9998 5.04729 34.9884 5.27907 35.0221 5.50644C35.0557 5.73381 35.1339 5.95233 35.252 6.14951L44.1595 21H11.8405L20.7515 6.14951ZM14 35C14 34.0718 14.3687 33.1815 15.0251 32.5251C15.6815 31.8688 16.5717 31.5 17.5 31.5C18.4283 31.5 19.3185 31.8688 19.9749 32.5251C20.6313 33.1815 21 34.0718 21 35V42C21 42.9283 20.6313 43.8185 19.9749 44.4749C19.3185 45.1313 18.4283 45.5 17.5 45.5C16.5717 45.5 15.6815 45.1313 15.0251 44.4749C14.3687 43.8185 14 42.9283 14 42V35ZM24.5 35C24.5 34.0718 24.8687 33.1815 25.5251 32.5251C26.1815 31.8688 27.0717 31.5 28 31.5C28.9283 31.5 29.8185 31.8688 30.4749 32.5251C31.1313 33.1815 31.5 34.0718 31.5 35V42C31.5 42.9283 31.1313 43.8185 30.4749 44.4749C29.8185 45.1313 28.9283 45.5 28 45.5C27.0717 45.5 26.1815 45.1313 25.5251 44.4749C24.8687 43.8185 24.5 42.9283 24.5 42V35ZM38.5 31.5C39.4283 31.5 40.3185 31.8688 40.9749 32.5251C41.6312 33.1815 42 34.0718 42 35V42C42 42.9283 41.6312 43.8185 40.9749 44.4749C40.3185 45.1313 39.4283 45.5 38.5 45.5C37.5717 45.5 36.6815 45.1313 36.0251 44.4749C35.3688 43.8185 35 42.9283 35 42V35C35 34.0718 35.3688 33.1815 36.0251 32.5251C36.6815 31.8688 37.5717 31.5 38.5 31.5Z" fill="#EE6439"/>
</g>
<defs>
<clipPath id="clip0_197_33">
<rect width="56" height="56" fill="white"/>
</clipPath>
</defs>
</svg>
