<svg width="56" height="45" viewBox="0 0 56 45" fill="none" xmlns="http://www.w3.org/2000/svg">
<path d="M2.8 2.79999C4.34875 2.79999 5.6 4.05124 5.6 5.59999V28H25.2V14C25.2 12.4512 26.4513 11.2 28 11.2H47.6C52.2375 11.2 56 14.9625 56 19.6V39.2C56 40.7487 54.7487 42 53.2 42C51.6512 42 50.4 40.7487 50.4 39.2V36.4H30.8H28H5.6V39.2C5.6 40.7487 4.34875 42 2.8 42C1.25125 42 0 40.7487 0 39.2V5.59999C0 4.05124 1.25125 2.79999 2.8 2.79999ZM15.4 11.2C17.2565 11.2 19.037 11.9375 20.3497 13.2502C21.6625 14.563 22.4 16.3435 22.4 18.2C22.4 20.0565 21.6625 21.837 20.3497 23.1497C19.037 24.4625 17.2565 25.2 15.4 25.2C13.5435 25.2 11.763 24.4625 10.4503 23.1497C9.1375 21.837 8.4 20.0565 8.4 18.2C8.4 16.3435 9.1375 14.563 10.4503 13.2502C11.763 11.9375 13.5435 11.2 15.4 11.2Z" fill="#1AB2D3"/>
</svg>
