<svg width="40" height="54" viewBox="0 0 40 54" fill="none" xmlns="http://www.w3.org/2000/svg">
<g clip-path="url(#clip0_197_39)">
<path d="M0 3.33333C0 1.48958 1.48958 0 3.33333 0H36.6667C38.5104 0 40 1.48958 40 3.33333V6.66667C40 8.51042 38.5104 10 36.6667 10H3.33333C1.48958 10 0 8.51042 0 6.66667V3.33333ZM3.33333 13.3333H36.6667V46.6667C36.6667 50.3438 33.6771 53.3333 30 53.3333H10C6.32292 53.3333 3.33333 50.3438 3.33333 46.6667V13.3333ZM16.6667 25V30H11.6667C10.75 30 10 30.75 10 31.6667V35C10 35.9167 10.75 36.6667 11.6667 36.6667H16.6667V41.6667C16.6667 42.5833 17.4167 43.3333 18.3333 43.3333H21.6667C22.5833 43.3333 23.3333 42.5833 23.3333 41.6667V36.6667H28.3333C29.25 36.6667 30 35.9167 30 35V31.6667C30 30.75 29.25 30 28.3333 30H23.3333V25C23.3333 24.0833 22.5833 23.3333 21.6667 23.3333H18.3333C17.4167 23.3333 16.6667 24.0833 16.6667 25Z" fill="#51FFF5"/>
</g>
<defs>
<clipPath id="clip0_197_39">
<rect width="40" height="53.3333" fill="white"/>
</clipPath>
</defs>
</svg>
