<svg width="56" height="56" viewBox="0 0 56 56" fill="none" xmlns="http://www.w3.org/2000/svg">
<g clip-path="url(#clip0_197_37)">
<path d="M28.0006 0L51.1356 10.5H54.2506C54.7147 10.5 55.1599 10.6844 55.4881 11.0126C55.8162 11.3408 56.0006 11.7859 56.0006 12.25V19.25C56.0006 19.7141 55.8162 20.1592 55.4881 20.4874C55.1599 20.8156 54.7147 21 54.2506 21H52.5006V45.5C52.8914 45.5003 53.2709 45.6314 53.5786 45.8725C53.8862 46.1135 54.1043 46.4506 54.1981 46.83L55.9481 53.83C56.0133 54.0878 56.0186 54.3571 55.9636 54.6172C55.9087 54.8774 55.7949 55.1215 55.6311 55.3309C55.4673 55.5404 55.2577 55.7095 55.0184 55.8255C54.7791 55.9415 54.5165 56.0012 54.2506 56H1.75062C1.48472 56.0012 1.22209 55.9415 0.982817 55.8255C0.743543 55.7095 0.533973 55.5404 0.370145 55.3309C0.206318 55.1215 0.0925762 54.8774 0.0376264 54.6172C-0.0173233 54.3571 -0.0120248 54.0878 0.0531166 53.83L1.80312 46.83C1.89747 46.4509 2.11572 46.1142 2.42324 45.8732C2.73077 45.6323 3.10995 45.5009 3.50062 45.5V21H1.75062C1.28649 21 0.841368 20.8156 0.51318 20.4874C0.184991 20.1592 0.000616649 19.7141 0.000616649 19.25V12.25C0.000616649 11.7859 0.184991 11.3408 0.51318 11.0126C0.841368 10.6844 1.28649 10.5 1.75062 10.5H4.86562L28.0006 0ZM13.2201 10.5H42.7846L28.0006 3.5L13.2201 10.5ZM7.00062 21V45.5H10.5006V21H7.00062ZM14.0006 21V45.5H22.7506V21H14.0006ZM26.2506 21V45.5H29.7506V21H26.2506ZM33.2506 21V45.5H42.0006V21H33.2506ZM45.5006 21V45.5H49.0006V21H45.5006ZM52.5006 17.5V14H3.50062V17.5H52.5006ZM51.1356 49H4.86562L3.99062 52.5H52.0106L51.1356 49Z" fill="#2ED954"/>
</g>
<defs>
<clipPath id="clip0_197_37">
<rect width="56" height="56" fill="white"/>
</clipPath>
</defs>
</svg>
