<svg width="56" height="56" viewBox="0 0 56 56" fill="none" xmlns="http://www.w3.org/2000/svg">
<g clip-path="url(#clip0_197_31)">
<path d="M10.395 4.725C10.7236 4.34082 11.1315 4.03239 11.5907 3.82092C12.0499 3.60945 12.5495 3.49997 13.055 3.5H42.945C43.4505 3.49997 43.9501 3.60945 44.4093 3.82092C44.8685 4.03239 45.2764 4.34082 45.605 4.725L54.7365 15.379C55.5518 16.3304 56 17.542 56 18.795V19.6875C56.0002 21.4199 55.4591 23.1091 54.4524 24.519C53.4456 25.9288 52.0235 26.9889 50.3849 27.5511C48.7462 28.1133 46.9728 28.1494 45.3126 27.6544C43.6524 27.1595 42.1883 26.1582 41.125 24.7905C40.3485 25.7907 39.3534 26.5999 38.2159 27.1562C37.0784 27.7125 35.8287 28.0012 34.5625 28C33.2962 28.0014 32.0464 27.7129 30.9089 27.1566C29.7714 26.6003 28.7763 25.7909 28 24.7905C27.2237 25.7909 26.2286 26.6003 25.0911 27.1566C23.9536 27.7129 22.7038 28.0014 21.4375 28C20.1712 28.0014 18.9214 27.7129 17.7839 27.1566C16.6464 26.6003 15.6513 25.7909 14.875 24.7905C13.8117 26.1582 12.3476 27.1595 10.6874 27.6544C9.02717 28.1494 7.25381 28.1133 5.61514 27.5511C3.97646 26.9889 2.55438 25.9288 1.54764 24.519C0.540896 23.1091 -0.000191095 21.4199 5.06259e-08 19.6875V18.795C4.41264e-05 17.542 0.448198 16.3304 1.2635 15.379L10.3985 4.7215L10.395 4.725ZM16.625 19.6875C16.625 20.9639 17.132 22.1879 18.0345 23.0905C18.9371 23.993 20.1611 24.5 21.4375 24.5C22.7139 24.5 23.9379 23.993 24.8405 23.0905C25.743 22.1879 26.25 20.9639 26.25 19.6875C26.25 19.2234 26.4344 18.7783 26.7626 18.4501C27.0908 18.1219 27.5359 17.9375 28 17.9375C28.4641 17.9375 28.9093 18.1219 29.2374 18.4501C29.5656 18.7783 29.75 19.2234 29.75 19.6875C29.75 20.9639 30.257 22.1879 31.1595 23.0905C32.0621 23.993 33.2861 24.5 34.5625 24.5C35.8389 24.5 37.0629 23.993 37.9655 23.0905C38.868 22.1879 39.375 20.9639 39.375 19.6875C39.375 19.2234 39.5594 18.7783 39.8876 18.4501C40.2158 18.1219 40.6609 17.9375 41.125 17.9375C41.5891 17.9375 42.0342 18.1219 42.3624 18.4501C42.6906 18.7783 42.875 19.2234 42.875 19.6875C42.875 20.9639 43.382 22.1879 44.2845 23.0905C45.1871 23.993 46.4111 24.5 47.6875 24.5C48.9639 24.5 50.1879 23.993 51.0905 23.0905C51.993 22.1879 52.5 20.9639 52.5 19.6875V18.795C52.5 18.3779 52.3511 17.9745 52.08 17.6575L42.945 7H13.055L3.92 17.6575C3.64892 17.9745 3.49997 18.3779 3.5 18.795V19.6875C3.5 20.9639 4.00703 22.1879 4.90955 23.0905C5.81207 23.993 7.03615 24.5 8.3125 24.5C9.58885 24.5 10.8129 23.993 11.7155 23.0905C12.618 22.1879 13.125 20.9639 13.125 19.6875C13.125 19.2234 13.3094 18.7783 13.6376 18.4501C13.9658 18.1219 14.4109 17.9375 14.875 17.9375C15.3391 17.9375 15.7842 18.1219 16.1124 18.4501C16.4406 18.7783 16.625 19.2234 16.625 19.6875ZM5.25 29.75C5.71413 29.75 6.15925 29.9344 6.48744 30.2626C6.81563 30.5907 7 31.0359 7 31.5V52.5H10.5V35C10.5 34.0717 10.8687 33.1815 11.5251 32.5251C12.1815 31.8687 13.0717 31.5 14 31.5H24.5C25.4283 31.5 26.3185 31.8687 26.9749 32.5251C27.6313 33.1815 28 34.0717 28 35V52.5H49V31.5C49 31.0359 49.1844 30.5907 49.5126 30.2626C49.8408 29.9344 50.2859 29.75 50.75 29.75C51.2141 29.75 51.6592 29.9344 51.9874 30.2626C52.3156 30.5907 52.5 31.0359 52.5 31.5V52.5H54.25C54.7141 52.5 55.1592 52.6844 55.4874 53.0126C55.8156 53.3408 56 53.7859 56 54.25C56 54.7141 55.8156 55.1592 55.4874 55.4874C55.1592 55.8156 54.7141 56 54.25 56H1.75C1.28587 56 0.840752 55.8156 0.512563 55.4874C0.184375 55.1592 5.06259e-08 54.7141 5.06259e-08 54.25C5.06259e-08 53.7859 0.184375 53.3408 0.512563 53.0126C0.840752 52.6844 1.28587 52.5 1.75 52.5H3.5V31.5C3.5 31.0359 3.68437 30.5907 4.01256 30.2626C4.34075 29.9344 4.78587 29.75 5.25 29.75ZM14 52.5H24.5V35H14V52.5ZM31.5 35C31.5 34.0717 31.8687 33.1815 32.5251 32.5251C33.1815 31.8687 34.0717 31.5 35 31.5H42C42.9283 31.5 43.8185 31.8687 44.4749 32.5251C45.1312 33.1815 45.5 34.0717 45.5 35V45.5C45.5 46.4283 45.1312 47.3185 44.4749 47.9749C43.8185 48.6312 42.9283 49 42 49H35C34.0717 49 33.1815 48.6312 32.5251 47.9749C31.8687 47.3185 31.5 46.4283 31.5 45.5V35ZM42 35H35V45.5H42V35Z" fill="#70FCC1"/>
</g>
<defs>
<clipPath id="clip0_197_31">
<rect width="56" height="56" fill="white"/>
</clipPath>
</defs>
</svg>
